<?xml version="1.0" encoding="UTF-8"?>
<!DOCTYPE svg PUBLIC "-//W3C//DTD SVG 1.1//EN" "http://www.w3.org/Graphics/SVG/1.1/DTD/svg11.dtd">
<!-- Creator: CorelDRAW -->
<svg xmlns="http://www.w3.org/2000/svg" xml:space="preserve" width="6.82666in" height="6.82666in" style="shape-rendering:geometricPrecision; text-rendering:geometricPrecision; image-rendering:optimizeQuality; fill-rule:evenodd; clip-rule:evenodd"
viewBox="0 0 6.82666 6.82666"
 xmlns:xlink="http://www.w3.org/1999/xlink">
 <defs>
  <style type="text/css">
   <![CDATA[
    .fil2 {fill:none}
    .fil8 {fill:#1E2524}
    .fil1 {fill:#424242}
    .fil7 {fill:#532511}
    .fil0 {fill:#616161}
    .fil14 {fill:#95CD5B}
    .fil9 {fill:#E1E9E7}
    .fil6 {fill:#4E811C;fill-rule:nonzero}
    .fil10 {fill:#588A27;fill-rule:nonzero}
    .fil13 {fill:#659932;fill-rule:nonzero}
    .fil12 {fill:#6CA333;fill-rule:nonzero}
    .fil3 {fill:#76AF3C;fill-rule:nonzero}
    .fil5 {fill:#95CD5B;fill-rule:nonzero}
    .fil15 {fill:#A52120;fill-rule:nonzero}
    .fil4 {fill:#CBD31C;fill-rule:nonzero}
    .fil11 {fill:#E6EBE0;fill-rule:nonzero}
   ]]>
  </style>
   <clipPath id="id0">
    <path d="M3.41333 -3.93701e-006c1.88513,0 3.41333,1.5282 3.41333,3.41333 0,1.88513 -1.5282,3.41333 -3.41333,3.41333 -1.88513,0 -3.41333,-1.5282 -3.41333,-3.41333 0,-1.88513 1.5282,-3.41333 3.41333,-3.41333z"/>
   </clipPath>
 </defs>
 <g id="Layer_x0020_1">
  <metadata id="CorelCorpID_0Corel-Layer"/>
  <path class="fil0" d="M3.41333 -3.93701e-006c1.88513,0 3.41333,1.5282 3.41333,3.41333 0,1.88513 -1.5282,3.41333 -3.41333,3.41333 -1.88513,0 -3.41333,-1.5282 -3.41333,-3.41333 0,-1.88513 1.5282,-3.41333 3.41333,-3.41333z"/>
  <g style="clip-path:url(#id0)">
   <g id="_637658464">
    <g>
     <polygon id="_4602088321" class="fil1" points="3.42493,2.39931 7.2112,6.18559 7.2097,6.20284 7.20847,6.2203 7.2075,6.23792 7.20678,6.25565 7.20628,6.27347 7.20601,6.29131 7.20595,6.30916 7.20609,6.32696 7.20641,6.34468 7.20692,6.36227 7.20758,6.3797 7.2084,6.39691 7.20936,6.41388 7.21045,6.43056 7.21165,6.4469 7.21297,6.46288 7.21437,6.47844 7.21586,6.49356 7.21742,6.50818 7.21904,6.52226 7.2207,6.53578 7.22241,6.54867 7.22414,6.56091 7.22588,6.57245 7.22762,6.58326 7.22935,6.59328 7.23106,6.60249 7.23273,6.61083 7.23436,6.61828 7.23593,6.62478 7.23744,6.6303 7.23886,6.6348 3.45259,2.84853 3.45117,2.84403 3.44967,2.83851 3.44809,2.83201 3.44646,2.82456 3.44479,2.81622 3.44308,2.80701 3.44135,2.79698 3.43961,2.78618 3.43787,2.77464 3.43614,2.7624 3.43444,2.7495 3.43277,2.73599 3.43115,2.72191 3.42959,2.70729 3.42811,2.69217 3.4267,2.67661 3.42539,2.66063 3.42418,2.64428 3.42309,2.62761 3.42213,2.61064 3.42131,2.59343 3.42065,2.576 3.42015,2.55841 3.41982,2.54069 3.41968,2.52289 3.41974,2.50504 3.42001,2.4872 3.42051,2.46938 3.42123,2.45165 3.4222,2.43403 3.42343,2.41657 "/>
     <path id="_460209000" class="fil1" d="M8.12099 7.33129l0 0zm-3.78627 -3.78627l0 0z"/>
     <path id="_460210128" class="fil1" d="M8.32736 7.51947l0 0zm-3.78627 -3.78627l0 0z"/>
     <polygon id="_460210320" class="fil1" points="2.90913,3.79462 6.6954,7.58089 6.69359,7.59575 6.69152,7.61043 6.6892,7.62491 6.68666,7.63919 6.6839,7.65328 6.68093,7.66716 6.67776,7.68084 6.67441,7.6943 6.67089,7.70755 6.6672,7.72058 6.66336,7.73338 6.65938,7.74596 6.65527,7.7583 6.65105,7.77041 6.64672,7.78228 6.64229,7.7939 6.63778,7.80527 6.6332,7.81639 6.62856,7.82725 6.62387,7.83785 6.61914,7.84819 6.61439,7.85825 6.60961,7.86804 6.60484,7.87755 6.60007,7.88678 6.59533,7.89572 6.59061,7.90437 6.58594,7.91273 6.58131,7.92079 6.57676,7.92854 6.57228,7.93599 6.56788,7.94312 2.78161,4.15685 2.78601,4.14972 2.79049,4.14227 2.79505,4.13452 2.79967,4.12646 2.80435,4.1181 2.80906,4.10945 2.81381,4.1005 2.81857,4.09128 2.82335,4.08176 2.82812,4.07198 2.83287,4.06191 2.8376,4.05158 2.84229,4.04098 2.84693,4.03012 2.85151,4.019 2.85602,4.00763 2.86045,3.996 2.86478,3.98414 2.869,3.97203 2.87311,3.95969 2.87709,3.94711 2.88093,3.93431 2.88462,3.92128 2.88815,3.90803 2.8915,3.89457 2.89466,3.88089 2.89763,3.86701 2.90039,3.85292 2.90294,3.83863 2.90525,3.82415 2.90732,3.80948 "/>
     <path id="_460210968" class="fil1" d="M5.83542 8.11911l0 0zm-3.78627 -3.78627l0 0z"/>
     <polygon id="_460210872" class="fil1" points="4.68748,2.09575 8.47375,5.88202 8.46628,5.89104 8.45889,5.89965 8.45156,5.90784 8.44429,5.91565 8.43705,5.92306 8.42981,5.93008 8.42258,5.93674 8.41533,5.94303 8.40804,5.94896 8.40069,5.95455 8.39327,5.95979 8.38576,5.9647 8.37814,5.96929 8.3704,5.97356 8.36251,5.97753 8.35447,5.98119 8.34625,5.98456 8.33783,5.98765 8.32921,5.99046 8.32035,5.993 8.31125,5.99529 8.30189,5.99732 8.29224,5.99911 8.2823,6.00067 8.27204,6.002 8.26145,6.00311 8.25051,6.00401 8.2392,6.00471 8.22751,6.00522 8.21541,6.00553 8.2029,6.00567 8.18995,6.00565 8.17744,6.0055 8.16491,6.0053 8.15241,6.00502 8.13995,6.00468 8.12755,6.00429 8.11524,6.00384 8.10305,6.00335 8.09098,6.00282 8.07908,6.00225 8.06736,6.00165 8.05585,6.00101 8.04456,6.00036 8.03353,5.99968 8.02278,5.99899 8.01233,5.99829 8.0022,5.99758 7.99242,5.99688 7.98301,5.99617 7.974,5.99548 7.96541,5.9948 7.95725,5.99413 7.94957,5.99348 7.94237,5.99287 7.93569,5.99228 7.92955,5.99173 7.92397,5.99122 7.91897,5.99075 7.91458,5.99033 7.91082,5.98997 7.90772,5.98967 7.90529,5.98942 7.90357,5.98925 4.1173,2.20298 4.11902,2.20315 4.12145,2.20339 4.12455,2.2037 4.12831,2.20406 4.1327,2.20448 4.1377,2.20494 4.14328,2.20546 4.14943,2.20601 4.15611,2.20659 4.1633,2.20721 4.17098,2.20785 4.17914,2.20852 4.18773,2.2092 4.19674,2.2099 4.20615,2.21061 4.21593,2.21131 4.22606,2.21202 4.23651,2.21272 4.24726,2.21341 4.2583,2.21409 4.26958,2.21474 4.28109,2.21537 4.29281,2.21598 4.30472,2.21655 4.31678,2.21708 4.32898,2.21757 4.34128,2.21802 4.35368,2.21841 4.36615,2.21874 4.37865,2.21902 4.39117,2.21923 4.40368,2.21937 4.41663,2.2194 4.42915,2.21926 4.44124,2.21894 4.45294,2.21844 4.46424,2.21774 4.47519,2.21684 4.48578,2.21573 4.49604,2.2144 4.50598,2.21284 4.51562,2.21105 4.52498,2.20902 4.53409,2.20673 4.54294,2.20419 4.55157,2.20137 4.55998,2.19829 4.5682,2.19492 4.57624,2.19126 4.58413,2.18729 4.59187,2.18302 4.59949,2.17843 4.607,2.17352 4.61442,2.16828 4.62177,2.16269 4.62906,2.15676 4.63631,2.15047 4.64355,2.14381 4.65078,2.13678 4.65802,2.12937 4.6653,2.12157 4.67262,2.11337 4.68001,2.10477 "/>
     <polygon id="_460211304" class="fil1" points="4.88603,2.36663 8.6723,6.1529 8.67297,6.15903 8.67333,6.16508 8.67338,6.17106 8.67314,6.17697 8.67263,6.18279 8.67184,6.18853 8.67081,6.19418 8.66954,6.19974 8.66803,6.2052 8.66632,6.21057 8.66441,6.21584 8.6623,6.22101 8.66003,6.22607 8.65759,6.23103 8.65501,6.23587 8.65229,6.2406 8.64944,6.24521 8.6465,6.2497 8.64345,6.25406 8.64032,6.2583 8.63712,6.26241 8.63387,6.26639 8.63056,6.27023 8.62724,6.27393 8.62389,6.27749 8.62054,6.28091 8.61719,6.28417 8.61387,6.28729 8.61058,6.29025 8.60734,6.29306 8.60417,6.2957 8.60106,6.29818 4.81479,2.51191 4.8179,2.50943 4.82107,2.50678 4.82431,2.50398 4.8276,2.50102 4.83093,2.4979 4.83427,2.49463 4.83762,2.49122 4.84097,2.48766 4.8443,2.48396 4.8476,2.48011 4.85085,2.47614 4.85405,2.47203 4.85718,2.46779 4.86023,2.46343 4.86318,2.45894 4.86602,2.45433 4.86874,2.4496 4.87132,2.44476 4.87376,2.4398 4.87604,2.43474 4.87814,2.42957 4.88005,2.4243 4.88176,2.41893 4.88327,2.41346 4.88454,2.40791 4.88557,2.40226 4.88636,2.39652 4.88687,2.3907 4.88711,2.38479 4.88706,2.37881 4.8867,2.37276 "/>
     <polygon id="_460211208" class="fil1" points="4.81479,2.51191 8.60106,6.29818 8.59515,6.30286 8.58969,6.30716 8.58467,6.3111 8.58007,6.31468 8.5759,6.31791 8.57214,6.32081 8.56878,6.32338 8.56581,6.32564 8.56322,6.32759 8.56102,6.32925 8.55917,6.33063 8.55768,6.33173 8.55654,6.33257 8.55573,6.33315 8.55526,6.3335 8.5551,6.33361 4.76883,2.54734 4.76899,2.54722 4.76946,2.54688 4.77027,2.5463 4.77141,2.54546 4.7729,2.54435 4.77475,2.54298 4.77696,2.54132 4.77954,2.53937 4.78251,2.53711 4.78587,2.53454 4.78963,2.53164 4.7938,2.52841 4.7984,2.52483 4.80342,2.52089 4.80888,2.51659 "/>
     <polygon id="_460211328" class="fil1" points="4.69572,1.9278 8.48199,5.71407 8.48709,5.72044 8.49177,5.72702 8.496,5.7338 8.49976,5.74076 8.50304,5.74792 8.50581,5.75525 8.50806,5.76275 8.50977,5.77042 8.51091,5.77825 8.51148,5.78622 8.51144,5.79435 8.51078,5.80261 8.50949,5.811 8.50753,5.81952 8.5049,5.82815 8.50156,5.83689 8.49751,5.84574 8.49272,5.85468 8.48719,5.86372 8.48087,5.87283 8.47375,5.88202 4.68748,2.09575 4.6946,2.08656 4.70092,2.07744 4.70646,2.06841 4.71124,2.05947 4.7153,2.05062 4.71863,2.04188 4.72126,2.03324 4.72322,2.02473 4.72452,2.01634 4.72517,2.00808 4.72521,1.99995 4.72465,1.99198 4.7235,1.98415 4.7218,1.97648 4.71954,1.96898 4.71677,1.96165 4.71349,1.95449 4.70973,1.94752 4.7055,1.94075 4.70083,1.93417 "/>
     <polygon id="_460211520" class="fil1" points="4.38453,2.38737 8.1708,6.17365 8.17657,6.18018 8.18216,6.18706 8.18743,6.19425 8.19228,6.20176 8.1966,6.20957 8.20028,6.21766 8.2032,6.22602 8.20526,6.23465 8.20633,6.24352 4.42007,2.45725 4.41899,2.44838 4.41694,2.43975 4.41401,2.43139 4.41033,2.4233 4.40602,2.41549 4.40116,2.40798 4.39589,2.40078 4.39031,2.39391 "/>
     <polygon id="_460211160" class="fil1" points="4.60456,2.62648 8.39082,6.41275 8.38241,6.41152 8.37411,6.41013 8.36593,6.4086 8.35787,6.40691 8.34993,6.40509 8.3421,6.40312 8.33438,6.40102 8.32677,6.39878 8.31928,6.39641 8.31189,6.39393 8.30461,6.39131 8.29743,6.38858 8.29036,6.38574 8.28339,6.38279 8.27652,6.37973 8.26975,6.37656 8.26307,6.3733 8.2565,6.36994 8.25002,6.3665 8.24363,6.36296 8.23734,6.35933 8.23114,6.35563 8.22502,6.35185 8.219,6.348 8.21306,6.34408 8.2072,6.34009 8.20143,6.33604 8.19574,6.33193 8.19013,6.32777 8.1846,6.32356 8.17915,6.3193 8.17377,6.31499 4.3875,2.52872 4.39288,2.53302 4.39833,2.53728 4.40386,2.5415 4.40947,2.54566 4.41516,2.54977 4.42093,2.55382 4.42679,2.55781 4.43273,2.56173 4.43876,2.56558 4.44487,2.56936 4.45107,2.57306 4.45737,2.57669 4.46375,2.58022 4.47023,2.58367 4.47681,2.58703 4.48348,2.59029 4.49025,2.59346 4.49712,2.59652 4.50409,2.59947 4.51116,2.60231 4.51834,2.60504 4.52562,2.60765 4.53301,2.61014 4.5405,2.61251 4.54811,2.61474 4.55583,2.61685 4.56366,2.61881 4.57161,2.62064 4.57967,2.62233 4.58784,2.62386 4.59614,2.62525 "/>
     <polygon id="_460210920" class="fil1" points="4.15326,2.45245 7.93952,6.23872 7.93269,6.23133 7.92575,6.22406 7.91872,6.21696 7.91162,6.21008 7.90446,6.20346 7.89727,6.19716 7.89006,6.19122 7.88284,6.18569 7.87563,6.18061 7.86846,6.17604 7.86134,6.17203 7.85429,6.16862 7.84732,6.16586 7.84045,6.1638 7.83371,6.16248 7.8271,6.16195 4.04083,2.37568 4.04744,2.3762 4.05419,2.37752 4.06105,2.37959 4.06802,2.38235 4.07507,2.38576 4.0822,2.38977 4.08937,2.39434 4.09657,2.39941 4.10379,2.40494 4.111,2.41089 4.1182,2.41719 4.12535,2.42381 4.13246,2.43069 4.13948,2.43779 4.14643,2.44506 "/>
     <polygon id="_460211112" class="fil1" points="4.23354,2.54813 8.01981,6.3344 8.01709,6.33159 4.23082,2.54531 "/>
     <polygon id="_460211424" class="fil1" points="4.3875,2.52872 8.17377,6.31499 8.16851,6.32006 8.16315,6.32473 8.15772,6.32902 8.15221,6.33293 8.14665,6.33649 8.14105,6.33969 8.13541,6.34256 8.12975,6.34509 8.12409,6.34731 8.11843,6.34921 8.11278,6.35082 8.10717,6.35214 8.10159,6.35318 8.09607,6.35396 8.09062,6.35448 8.08525,6.35475 8.07996,6.3548 8.07478,6.35461 8.06971,6.35421 8.06477,6.35361 8.05996,6.35282 8.05531,6.35184 8.05083,6.35069 8.04651,6.34939 8.04239,6.34793 8.03846,6.34633 8.03475,6.3446 8.03126,6.34276 8.02802,6.3408 8.02501,6.33875 8.02227,6.33661 8.01981,6.3344 4.23354,2.54813 4.236,2.55034 4.23874,2.55248 4.24175,2.55453 4.245,2.55648 4.24848,2.55833 4.2522,2.56006 4.25612,2.56166 4.26024,2.56311 4.26456,2.56442 4.26904,2.56557 4.2737,2.56655 4.2785,2.56734 4.28344,2.56794 4.28851,2.56834 4.29369,2.56852 4.29898,2.56848 4.30435,2.56821 4.30981,2.56769 4.31533,2.56691 4.3209,2.56587 4.32652,2.56455 4.33216,2.56294 4.33782,2.56104 4.34348,2.55882 4.34914,2.55629 4.35478,2.55342 4.36038,2.55022 4.36594,2.54666 4.37145,2.54275 4.37688,2.53846 4.38224,2.53379 "/>
     <polygon id="_460211568" class="fil1" points="4.04083,2.37568 7.8271,6.16195 7.82056,6.16179 7.814,6.16152 7.80741,6.16115 7.8008,6.16065 7.79416,6.16004 7.78749,6.15931 7.78078,6.15845 7.77402,6.15746 7.76723,6.15633 7.76038,6.15506 7.75348,6.15365 7.74654,6.15209 7.73952,6.15038 7.73245,6.14851 7.72531,6.14648 7.7181,6.14428 7.71082,6.14192 7.70346,6.13938 7.69603,6.13667 7.6885,6.13377 7.6809,6.13068 7.6732,6.12741 7.6654,6.12393 7.65751,6.12026 7.64952,6.11639 7.64142,6.11231 7.63321,6.10801 7.62489,6.1035 7.61646,6.09877 7.6079,6.09381 7.59922,6.08863 7.59042,6.08321 3.80415,2.29694 3.81296,2.30236 3.82163,2.30754 3.83019,2.3125 3.83863,2.31723 3.84694,2.32174 3.85515,2.32604 3.86325,2.33012 3.87124,2.33399 3.87913,2.33766 3.88693,2.34113 3.89463,2.34441 3.90224,2.3475 3.90976,2.35039 3.9172,2.35311 3.92456,2.35565 3.93183,2.35801 3.93904,2.36021 3.94619,2.36224 3.95326,2.36411 3.96027,2.36582 3.96722,2.36738 3.97411,2.36879 3.98096,2.37006 3.98776,2.37119 3.99451,2.37218 4.00122,2.37304 4.00789,2.37377 4.01454,2.37438 4.02115,2.37487 4.02773,2.37525 4.03429,2.37552 "/>
     <polygon id="_460211928" class="fil1" points="3.80415,2.29694 7.59042,6.08321 7.58202,6.07784 7.57403,6.07253 7.56645,6.06729 7.55924,6.06211 7.55238,6.05701 7.54585,6.05197 7.53961,6.04701 7.53366,6.04211 7.52795,6.03729 7.52248,6.03255 7.5172,6.02788 7.51211,6.02329 7.50718,6.01878 7.50237,6.01434 7.49767,6.00999 7.49306,6.00572 7.4885,6.00154 7.48398,5.99744 7.47946,5.99343 7.47493,5.9895 7.47036,5.98567 7.46572,5.98193 7.461,5.97827 7.45617,5.97471 7.4512,5.97125 7.44607,5.96788 7.44076,5.96461 7.43523,5.96143 7.42947,5.95836 7.42345,5.95538 7.41715,5.95251 7.41054,5.94974 7.39778,5.9451 7.38557,5.94162 7.37392,5.93925 7.3628,5.93794 7.3522,5.93766 7.34211,5.93835 7.33252,5.93996 7.32341,5.94246 7.31476,5.9458 7.30658,5.94993 7.29884,5.9548 7.29153,5.96038 7.28464,5.96661 7.27815,5.97344 7.27206,5.98083 7.26634,5.98875 7.26099,5.99713 7.25598,6.00593 7.25132,6.01512 7.24699,6.02463 7.24296,6.03444 7.23924,6.04448 7.2358,6.05472 7.23264,6.0651 7.22973,6.07559 7.22708,6.08614 7.22465,6.0967 7.22245,6.10722 7.22046,6.11766 7.21866,6.12798 7.21704,6.13812 7.21559,6.14805 3.42932,2.36178 3.43077,2.35185 3.43239,2.34171 3.43419,2.33139 3.43619,2.32095 3.43839,2.31043 3.44081,2.29987 3.44346,2.28932 3.44637,2.27883 3.44954,2.26844 3.45297,2.25821 3.4567,2.24817 3.46072,2.23836 3.46506,2.22885 3.46972,2.21966 3.47472,2.21086 3.48007,2.20248 3.48579,2.19456 3.49189,2.18717 3.49837,2.18033 3.50526,2.17411 3.51257,2.16853 3.52031,2.16366 3.5285,2.15953 3.53714,2.15619 3.54625,2.15369 3.55584,2.15207 3.56593,2.15139 3.57653,2.15167 3.58765,2.15298 3.5993,2.15535 3.61151,2.15883 3.62428,2.16347 3.63088,2.16624 3.63719,2.16911 3.6432,2.17209 3.64896,2.17516 3.65449,2.17833 3.6598,2.18161 3.66493,2.18498 3.66991,2.18844 3.67474,2.192 3.67946,2.19565 3.68409,2.1994 3.68866,2.20323 3.69319,2.20716 3.69771,2.21117 3.70223,2.21527 3.70679,2.21945 3.71141,2.22372 3.71611,2.22807 3.72091,2.2325 3.72585,2.23702 3.73094,2.24161 3.73621,2.24628 3.74169,2.25102 3.74739,2.25584 3.75334,2.26074 3.75958,2.2657 3.76611,2.27074 3.77297,2.27584 3.78018,2.28102 3.78776,2.28626 3.79575,2.29157 "/>
     <polygon id="_460211976" class="fil1" points="3.43431,2.36033 7.22057,6.1466 7.21933,6.15128 7.2181,6.15602 7.21689,6.16082 7.2157,6.16567 7.21454,6.17057 7.21341,6.17552 7.21229,6.18053 7.2112,6.18559 3.42493,2.39931 3.42602,2.39426 3.42714,2.38925 3.42828,2.3843 3.42944,2.37939 3.43062,2.37455 3.43183,2.36975 3.43306,2.36501 "/>
     <path id="_460212168" class="fil1" d="M7.95671 7.22224l0 0zm-3.78627 -3.78627l0 0z"/>
     <polygon id="_460212360" class="fil1" points="3.45259,2.84853 7.23886,6.6348 7.2391,6.63542 7.23954,6.63656 7.24011,6.63802 7.24073,6.63962 7.24133,6.6412 7.24185,6.64256 7.2422,6.64351 7.24232,6.64389 3.45606,2.85762 3.45593,2.85724 3.45558,2.85628 3.45506,2.85493 3.45446,2.85335 3.45384,2.85174 3.45327,2.85028 3.45283,2.84915 "/>
     <polygon id="_460212240" class="fil1" points="3.45606,2.85762 7.24232,6.64389 7.24485,6.65038 7.24741,6.65667 7.25002,6.66279 7.25267,6.66874 7.25538,6.67456 7.25815,6.68026 7.26099,6.68587 7.26391,6.69139 7.26691,6.69687 7.27,6.7023 7.27318,6.70773 7.27648,6.71316 7.27988,6.71861 7.28341,6.72412 7.28705,6.7297 7.29083,6.73536 7.29379,6.7397 7.2968,6.74403 7.29987,6.74835 7.30298,6.75265 7.30615,6.75694 7.30936,6.76122 7.31261,6.76548 7.31591,6.76972 7.31926,6.77394 7.32264,6.77815 7.32606,6.78233 7.32952,6.7865 7.33302,6.79064 7.33654,6.79476 7.3401,6.79887 7.34369,6.80294 7.34731,6.807 7.35096,6.81103 7.35463,6.81503 7.35832,6.81901 7.36204,6.82296 7.36577,6.82688 7.36952,6.83078 3.58326,3.04451 3.5795,3.04061 3.57577,3.03669 3.57205,3.03274 3.56836,3.02876 3.56469,3.02476 3.56104,3.02072 3.55743,3.01667 3.55383,3.01259 3.55028,3.00849 3.54675,3.00437 3.54325,3.00022 3.5398,2.99606 3.53637,2.99187 3.53299,2.98767 3.52965,2.98344 3.52635,2.9792 3.52309,2.97494 3.51988,2.97067 3.51672,2.96638 3.5136,2.96208 3.51054,2.95776 3.50752,2.95343 3.50457,2.94909 3.50078,2.94343 3.49714,2.93785 3.49361,2.93234 3.49021,2.92689 3.48691,2.92146 3.48373,2.91603 3.48064,2.91059 3.47764,2.90512 3.47472,2.89959 3.47188,2.89399 3.46911,2.88829 3.4664,2.88247 3.46375,2.87652 3.46115,2.8704 3.45858,2.86411 "/>
     <polygon id="_460212072" class="fil1" points="3.72861,3.1702 7.51488,6.95647 7.51494,6.95674 3.72867,3.17047 "/>
     <polygon id="_460212024" class="fil1" points="4.00969,3.34501 7.79596,7.13128 7.79582,7.13137 4.00956,3.34509 "/>
     <polygon id="_460211664" class="fil1" points="4.15569,3.42689 7.94196,7.21316 7.94182,7.21324 4.15556,3.42697 "/>
     <polygon id="_460212336" class="fil1" points="4.50114,3.68811 8.28741,7.47438 8.29271,7.47994 8.29793,7.48554 8.30308,7.49114 8.30815,7.49676 8.31313,7.5024 8.31802,7.50805 4.53175,3.72178 4.52686,3.71613 4.52188,3.71049 4.51681,3.70487 4.51167,3.69926 4.50644,3.69367 "/>
     <polygon id="_460211784" class="fil1" points="4.53175,3.72178 8.31802,7.50805 8.31786,7.50812 4.53159,3.72185 "/>
     <polygon id="_460212600" class="fil1" points="4.53159,3.72185 8.31786,7.50812 8.31907,7.50954 8.32027,7.51096 8.32147,7.51237 8.32266,7.51379 8.32385,7.5152 8.32503,7.51663 8.32621,7.51805 8.32738,7.51947 4.54111,3.7332 4.53994,3.73178 4.53876,3.73035 4.53758,3.72893 4.53639,3.72752 4.5352,3.7261 4.534,3.72469 4.5328,3.72327 "/>
     <polygon id="_460212624" class="fil1" points="4.54111,3.7332 8.32738,7.51947 8.33134,7.52428 8.33526,7.52917 8.33915,7.53414 8.343,7.53918 8.3468,7.54427 8.35053,7.5494 8.35421,7.55458 8.35781,7.55978 8.36135,7.565 8.3648,7.57024 8.36817,7.57548 8.37144,7.5807 8.37461,7.58592 8.37768,7.59111 8.38064,7.59626 8.38348,7.60137 8.38526,7.6047 8.38708,7.60818 8.38892,7.6118 8.39078,7.61556 8.39267,7.61944 8.39457,7.62344 8.39648,7.62754 8.3984,7.63173 8.40033,7.63601 8.40227,7.64037 8.40421,7.64478 8.40615,7.64926 8.40808,7.65377 8.41001,7.65833 8.41193,7.6629 8.41384,7.66749 8.41573,7.67209 8.4176,7.67668 8.41945,7.68126 8.42128,7.68581 8.42308,7.69032 8.42485,7.69479 8.42659,7.69921 8.42829,7.70356 8.42996,7.70783 8.43158,7.71202 8.43316,7.71612 8.43469,7.72011 8.43617,7.72399 8.43759,7.72774 8.43897,7.73135 8.44028,7.73483 4.65401,3.94856 4.6527,3.94508 4.65133,3.94147 4.6499,3.93772 4.64842,3.93384 4.64689,3.92985 4.64531,3.92575 4.64369,3.92156 4.64202,3.91729 4.64032,3.91294 4.63858,3.90852 4.63681,3.90405 4.63501,3.89954 4.63319,3.89498 4.63133,3.89041 4.62946,3.88582 4.62757,3.88122 4.62566,3.87663 4.62374,3.87206 4.62181,3.8675 4.61988,3.86298 4.61794,3.85851 4.616,3.85409 4.61407,3.84974 4.61213,3.84546 4.61021,3.84126 4.6083,3.83717 4.6064,3.83317 4.60452,3.82929 4.60265,3.82553 4.60081,3.82191 4.599,3.81843 4.59721,3.8151 4.59437,3.80999 4.59141,3.80483 4.58835,3.79965 4.58517,3.79443 4.5819,3.7892 4.57854,3.78397 4.57508,3.77873 4.57155,3.77351 4.56794,3.76831 4.56426,3.76313 4.56053,3.758 4.55673,3.75291 4.55289,3.74787 4.549,3.7429 4.54507,3.73801 "/>
     <polygon id="_460212408" class="fil1" points="4.65401,3.94856 8.44028,7.73483 8.44009,7.73493 4.65382,3.94866 "/>
     <polygon id="_460212816" class="fil1" points="4.65382,3.94866 8.44009,7.73493 8.44225,7.74067 8.4444,7.74646 8.44655,7.7523 8.44869,7.75818 8.45081,7.76411 8.45293,7.77007 8.45503,7.77607 8.45712,7.78211 8.45919,7.78818 8.46124,7.79427 8.46327,7.80039 8.46528,7.80654 8.46727,7.8127 8.46923,7.81889 8.47117,7.82508 8.47308,7.83129 8.47496,7.83751 8.47681,7.84374 8.47863,7.84997 8.48042,7.8562 8.48217,7.86243 8.48388,7.86866 8.48556,7.87488 8.48719,7.88109 8.48878,7.88729 8.49033,7.89347 8.49184,7.89964 8.4933,7.90579 8.49471,7.91191 8.49608,7.91801 8.49739,7.92407 8.49865,7.93011 4.71239,4.14384 4.71113,4.1378 4.70981,4.13174 4.70844,4.12564 4.70703,4.11952 4.70557,4.11337 4.70407,4.1072 4.70252,4.10102 4.70092,4.09482 4.69929,4.08861 4.69761,4.08239 4.6959,4.07616 4.69415,4.06993 4.69236,4.0637 4.69055,4.05746 4.6887,4.05124 4.68681,4.04502 4.68491,4.03881 4.68296,4.03261 4.681,4.02643 4.67902,4.02026 4.677,4.01412 4.67497,4.008 4.67292,4.00191 4.67085,3.99584 4.66876,3.9898 4.66666,3.9838 4.66455,3.97783 4.66242,3.97191 4.66028,3.96603 4.65813,3.96019 4.65598,3.9544 "/>
     <polygon id="_460213008" class="fil1" points="4.71239,4.14384 8.49865,7.93011 8.49848,7.93023 4.71221,4.14396 "/>
     <polygon id="_460212744" class="fil1" points="4.71221,4.14396 8.49848,7.93023 8.50053,7.94053 8.50248,7.95085 8.50431,7.9612 8.50602,7.97158 8.50761,7.98198 8.50908,7.99242 8.51043,8.00288 8.51163,8.01337 8.51271,8.02389 8.51365,8.03444 8.51444,8.04503 8.51509,8.05565 8.51559,8.0663 8.51594,8.07699 8.51614,8.08771 8.51618,8.09847 8.51606,8.10927 8.51576,8.1201 8.51531,8.13097 8.51467,8.14189 8.51387,8.15284 8.51289,8.16383 8.51172,8.17487 8.51037,8.18594 8.50882,8.19706 8.50709,8.20823 8.50516,8.21944 8.50303,8.23069 8.5007,8.242 8.49816,8.25335 8.49541,8.26474 8.49245,8.27619 4.70618,4.48992 4.70914,4.47847 4.71189,4.46707 4.71443,4.45572 4.71676,4.44442 4.71889,4.43317 4.72082,4.42196 4.72256,4.41079 4.7241,4.39967 4.72545,4.38859 4.72662,4.37756 4.7276,4.36657 4.72841,4.35561 4.72904,4.3447 4.7295,4.33383 4.72979,4.323 4.72991,4.3122 4.72987,4.30144 4.72968,4.29072 4.72933,4.28003 4.72882,4.26938 4.72817,4.25876 4.72738,4.24817 4.72644,4.23762 4.72537,4.2271 4.72416,4.21661 4.72281,4.20615 4.72135,4.19571 4.71976,4.18531 4.71804,4.17493 4.71621,4.16458 4.71426,4.15426 "/>
     <polygon id="_460212912" class="fil1" points="4.70618,4.48992 8.49245,8.27619 8.49236,8.27623 4.70609,4.48996 "/>
     <polygon id="_460212384" class="fil1" points="4.70609,4.48996 8.49236,8.27623 8.4917,8.27859 8.49104,8.28096 8.49035,8.28332 8.48966,8.28569 8.48896,8.28805 8.48825,8.29042 8.48752,8.29279 8.4868,8.29515 4.70053,4.50888 4.70126,4.50652 4.70198,4.50415 4.70269,4.50178 4.70339,4.49941 4.70409,4.49705 4.70477,4.49469 4.70544,4.49232 "/>
     <polygon id="_460212720" class="fil1" points="2.59745,3.21259 6.38372,6.99887 6.38356,6.99898 2.5973,3.2127 "/>
     <polygon id="_460212792" class="fil1" points="2.5973,3.2127 6.38356,6.99898 6.3816,6.99718 6.37811,6.9941 6.37333,6.98992 6.36749,6.98483 6.3608,6.97905 6.35349,6.97276 6.3458,6.96615 6.33794,6.95943 6.33014,6.95278 6.32264,6.94642 6.31565,6.94052 6.3094,6.9353 6.30412,6.93093 6.30003,6.92762 6.29737,6.92557 6.29635,6.92497 2.51008,3.1387 2.5111,3.1393 2.51376,3.14135 2.51785,3.14466 2.52313,3.14902 2.52938,3.15425 2.53637,3.16015 2.54387,3.16651 2.55167,3.17316 2.55953,3.17988 2.56722,3.18648 2.57453,3.19278 2.58122,3.19856 2.58707,3.20365 2.59185,3.20783 2.59533,3.21091 "/>
     <polygon id="_460212864" class="fil1" points="2.42619,3.07158 6.21246,6.85785 6.21124,6.85676 6.21002,6.85567 6.2088,6.85458 6.20758,6.85349 6.20637,6.8524 6.20517,6.85131 6.20397,6.85022 6.20278,6.84912 2.41652,3.06285 2.4177,3.06394 2.4189,3.06504 2.4201,3.06613 2.42131,3.06722 2.42253,3.06831 2.42375,3.0694 2.42497,3.07049 "/>
     <polygon id="_460213248" class="fil1" points="2.51008,3.1387 6.29635,6.92497 6.29122,6.92113 6.28598,6.91719 6.28064,6.91316 6.27524,6.90906 6.26978,6.9049 6.26429,6.90069 6.25879,6.89643 6.2533,6.89214 6.24785,6.88784 6.24244,6.88352 6.23711,6.87921 6.23187,6.87491 6.22675,6.87063 6.22176,6.86638 6.21692,6.86218 6.21226,6.85803 2.42599,3.07176 2.43065,3.07591 2.43549,3.08011 2.44048,3.08435 2.44561,3.08863 2.45084,3.09294 2.45618,3.09725 2.46158,3.10157 2.46704,3.10587 2.47252,3.11016 2.47802,3.11441 2.48351,3.11863 2.48897,3.12279 2.49437,3.12689 2.49971,3.13091 2.50495,3.13485 "/>
     <polygon id="_460213632" class="fil1" points="4.17997,5.08293 7.96624,8.8692 7.95667,8.87365 7.94717,8.87804 7.93774,8.88236 7.92836,8.88661 7.91903,8.8908 7.90975,8.89493 7.90051,8.89899 7.89131,8.90299 7.88213,8.90694 7.87298,8.91082 7.86385,8.91465 7.85473,8.91841 7.84561,8.92213 7.8365,8.92579 7.82739,8.92939 7.81826,8.93295 7.80912,8.93645 7.79995,8.9399 7.79076,8.94331 7.78154,8.94667 7.77228,8.94998 7.76298,8.95324 7.75363,8.95646 7.74422,8.95964 7.73475,8.96278 7.72521,8.96587 7.71561,8.96893 7.70592,8.97195 7.69615,8.97493 7.6863,8.97787 7.67635,8.98078 7.6663,8.98366 3.88003,5.19739 3.89008,5.19451 3.90003,5.1916 3.90989,5.18866 3.91965,5.18568 3.92934,5.18266 3.93894,5.1796 3.94848,5.1765 3.95795,5.17337 3.96736,5.17019 3.97671,5.16697 3.98602,5.1637 3.99528,5.16039 4.0045,5.15704 4.01369,5.15363 4.02285,5.15018 4.03199,5.14668 4.04112,5.14312 4.05024,5.13952 4.05935,5.13585 4.06846,5.13214 4.07758,5.12837 4.08671,5.12455 4.09587,5.12067 4.10504,5.11672 4.11424,5.11272 4.12348,5.10865 4.13276,5.10453 4.14209,5.10034 4.15147,5.09609 4.16091,5.09177 4.17041,5.08738 "/>
     <polygon id="_460213824" class="fil1" points="3.54322,5.25867 7.32949,9.04494 7.31636,9.04637 7.30324,9.04775 7.29013,9.04907 7.27703,9.05033 7.26394,9.05154 7.25085,9.0527 7.23778,9.0538 7.22471,9.05485 7.21165,9.05585 7.19859,9.05681 7.18554,9.0577 7.1725,9.05856 7.15946,9.05936 7.14643,9.06012 7.1334,9.06082 7.12037,9.06148 7.10735,9.0621 7.09433,9.06267 7.08131,9.0632 7.0683,9.06368 7.05528,9.06411 7.04227,9.06451 7.02926,9.06487 7.01624,9.06518 7.00323,9.06545 6.99022,9.06568 6.97721,9.06587 6.96419,9.06603 6.95118,9.06614 6.93816,9.06622 6.92514,9.06626 6.91211,9.06627 3.12585,5.28 3.13887,5.27999 3.15189,5.27995 3.16491,5.27987 3.17793,5.27976 3.19094,5.2796 3.20395,5.27941 3.21696,5.27918 3.22998,5.27891 3.24299,5.27859 3.256,5.27824 3.26901,5.27784 3.28203,5.27741 3.29504,5.27693 3.30806,5.2764 3.32108,5.27583 3.3341,5.27521 3.34713,5.27455 3.36016,5.27385 3.37319,5.27309 3.38623,5.27229 3.39928,5.27143 3.41233,5.27054 3.42538,5.26958 3.43844,5.26858 3.45151,5.26753 3.46459,5.26643 3.47767,5.26527 3.49076,5.26406 3.50386,5.2628 3.51697,5.26148 3.53009,5.2601 "/>
     <polygon id="_460213656" class="fil1" points="3.88003,5.19739 7.6663,8.98366 7.65602,8.98643 7.64571,8.98913 7.63538,8.99178 7.62502,8.99435 7.61464,8.99687 7.60424,8.99933 7.59381,9.00172 7.58336,9.00406 7.5729,9.00634 7.56241,9.00856 7.55191,9.01073 7.5414,9.01284 7.53087,9.0149 7.52032,9.0169 7.50976,9.01885 7.4992,9.02076 7.48862,9.02261 7.47803,9.02441 7.46744,9.02617 7.45684,9.02788 7.44623,9.02954 7.43562,9.03116 7.42501,9.03273 7.4144,9.03426 7.40378,9.03576 7.39317,9.0372 7.38256,9.03861 7.37195,9.03998 7.36135,9.04131 7.35075,9.04261 7.34015,9.04387 7.32957,9.0451 3.5433,5.25883 3.55389,5.2576 3.56448,5.25634 3.57508,5.25504 3.58568,5.25371 3.59629,5.25234 3.6069,5.25093 3.61752,5.24948 3.62813,5.24799 3.63874,5.24646 3.64935,5.24489 3.65996,5.24327 3.67057,5.24161 3.68117,5.2399 3.69176,5.23814 3.70235,5.23634 3.71293,5.23448 3.7235,5.23258 3.73405,5.23063 3.7446,5.22863 3.75513,5.22657 3.76565,5.22446 3.77615,5.22229 3.78663,5.22007 3.79709,5.21779 3.80754,5.21545 3.81797,5.21306 3.82837,5.2106 3.83875,5.20808 3.84911,5.2055 3.85944,5.20286 3.86975,5.20016 "/>
     <polygon id="_460213296" class="fil1" points="3.12585,5.28 6.91211,9.06627 6.91031,9.06626 6.90772,9.06622 6.9044,9.06617 6.9004,9.06609 6.89578,9.066 6.89058,9.06589 6.88487,9.06578 6.87871,9.06564 6.87215,9.0655 6.86524,9.06535 6.85804,9.06519 6.8506,9.06502 6.84298,9.06484 6.83525,9.06466 6.82744,9.06448 6.81963,9.0643 6.81185,9.06412 6.80418,9.06394 6.79666,9.06376 6.78935,9.06359 6.7823,9.06343 6.77557,9.06327 6.76923,9.06312 6.76331,9.06298 6.75789,9.06285 6.753,9.06274 6.74872,9.06264 6.74509,9.06256 6.74217,9.06249 6.74001,9.06244 6.73868,9.06242 6.73822,9.06242 2.95195,5.27615 2.95241,5.27615 2.95374,5.27617 2.9559,5.27622 2.95882,5.27628 2.96245,5.27637 2.96674,5.27646 2.97162,5.27658 2.97705,5.27671 2.98296,5.27685 2.98931,5.277 2.99603,5.27715 3.00308,5.27732 3.01039,5.27749 3.01791,5.27767 3.02559,5.27785 3.03336,5.27803 3.04118,5.27821 3.04898,5.27839 3.05672,5.27857 3.06433,5.27874 3.07177,5.27891 3.07897,5.27907 3.08588,5.27923 3.09244,5.27937 3.09861,5.2795 3.10431,5.27962 3.10951,5.27973 3.11413,5.27982 3.11813,5.27989 3.12146,5.27995 3.12405,5.27998 "/>
     <polygon id="_460213896" class="fil1" points="2.66932,5.25089 6.45559,9.03716 6.44078,9.03515 2.65452,5.24888 "/>
     <polygon id="_460213392" class="fil1" points="2.95195,5.27615 6.73822,9.06242 6.72911,9.06195 6.72004,9.06148 6.71103,9.06098 6.70206,9.06048 6.69313,9.05995 6.68425,9.05941 6.67539,9.05885 6.66657,9.05828 6.65778,9.05768 6.64902,9.05707 6.64028,9.05643 6.63155,9.05578 6.62284,9.0551 6.61414,9.0544 6.60545,9.05368 6.59676,9.05293 6.58807,9.05216 6.57939,9.05137 6.57069,9.05055 6.56199,9.0497 6.55328,9.04882 6.54454,9.04792 6.53579,9.04699 6.52702,9.04603 6.51822,9.04504 6.50939,9.04402 6.50052,9.04297 6.49162,9.04189 6.48268,9.04078 6.4737,9.03963 6.46467,9.03844 6.45559,9.03723 2.66932,5.25096 2.6784,5.25217 2.68743,5.25335 2.69641,5.2545 2.70535,5.25562 2.71426,5.2567 2.72312,5.25775 2.73195,5.25877 2.74075,5.25976 2.74952,5.26072 2.75828,5.26165 2.76701,5.26255 2.77572,5.26343 2.78443,5.26428 2.79312,5.26509 2.80181,5.26589 2.81049,5.26666 2.81918,5.26741 2.82787,5.26813 2.83657,5.26883 2.84528,5.2695 2.85401,5.27016 2.86275,5.2708 2.87152,5.27141 2.88031,5.272 2.88913,5.27258 2.89798,5.27314 2.90687,5.27368 2.91579,5.2742 2.92476,5.27471 2.93378,5.2752 2.94284,5.27568 "/>
     <polygon id="_460213224" class="fil1" points="2.65452,5.24888 6.44078,9.03515 6.44079,9.03526 2.65452,5.24899 "/>
     <polygon id="_460213320" class="fil1" points="2.65452,5.24899 6.44079,9.03526 6.33404,9.0186 2.54777,5.23233 "/>
     <polygon id="_460213536" class="fil1" points="2.54777,5.23233 6.33404,9.0186 6.19589,8.99104 2.40962,5.20476 "/>
     <polygon id="_460214328" class="fil1" points="2.40962,5.20476 6.19589,8.99104 6.19468,8.99075 6.19261,8.99026 6.19001,8.98964 6.18719,8.98899 6.18446,8.98837 6.18213,8.98789 6.18052,8.98761 6.17995,8.98762 2.39369,5.20135 2.39426,5.20133 2.39586,5.20161 2.39819,5.2021 2.40092,5.20272 2.40374,5.20337 2.40635,5.20399 2.40841,5.20448 "/>
     <polygon id="_460214592" class="fil1" points="2.39369,5.20135 6.17995,8.98762 6.16462,8.98396 6.14889,8.98009 6.1328,8.976 6.11639,8.97169 6.0997,8.96715 6.08276,8.96237 6.06561,8.95737 6.0483,8.95211 6.03085,8.94661 6.0133,8.94087 5.9957,8.93485 5.97808,8.92859 5.96048,8.92205 5.94293,8.91524 5.92547,8.90815 5.90815,8.90078 5.89099,8.89312 5.87404,8.88517 5.85733,8.87692 5.84091,8.86837 5.8248,8.85951 5.80905,8.85034 5.79369,8.84085 5.77876,8.83104 5.76431,8.82089 5.75036,8.81042 5.73695,8.79961 1.95069,5.01334 1.96409,5.02415 1.97804,5.03462 1.9925,5.04476 2.00742,5.05457 2.02278,5.06407 2.03853,5.07324 2.05464,5.08209 2.07106,5.09065 2.08777,5.0989 2.10472,5.10685 2.12188,5.1145 2.1392,5.12188 2.15666,5.12896 2.17421,5.13578 2.19181,5.14231 2.20943,5.14858 2.22704,5.15459 2.24458,5.16034 2.26203,5.16584 2.27935,5.17109 2.29649,5.1761 2.31343,5.18087 2.33012,5.18541 2.34653,5.18972 2.36262,5.19381 2.37835,5.19769 "/>
     <polygon id="_460214232" class="fil1" points="2.41652,3.06285 6.20278,6.84912 6.20254,6.84937 2.41627,3.0631 "/>
     <polygon id="_460213968" class="fil1" points="2.41627,3.0631 6.20254,6.84937 6.19774,6.84481 2.41148,3.05854 "/>
     <polygon id="_460214136" class="fil1" points="2.42053,2.6345 6.2068,6.42078 6.20721,6.42141 6.20706,6.4225 6.20643,6.42407 6.20533,6.42611 6.20381,6.42862 6.20191,6.43157 6.19966,6.43497 6.19709,6.4388 6.19424,6.44305 6.19115,6.44772 6.18785,6.45279 6.18438,6.45826 6.18077,6.46411 6.17706,6.47034 6.17328,6.47694 6.16946,6.48389 6.16566,6.49119 6.16189,6.49884 6.15819,6.50681 6.1546,6.5151 6.15116,6.5237 6.1479,6.53261 6.14485,6.54181 6.14206,6.55129 6.13955,6.56104 6.13736,6.57106 6.13553,6.58133 6.13409,6.59185 6.13308,6.6026 6.13254,6.61358 6.13248,6.62478 6.13297,6.63619 6.13402,6.64779 2.34776,2.86152 2.3467,2.84991 2.34622,2.83851 2.34627,2.82731 2.34681,2.81633 2.34782,2.80557 2.34926,2.79506 2.35109,2.78479 2.35328,2.77477 2.35579,2.76502 2.35859,2.75554 2.36163,2.74634 2.36489,2.73743 2.36833,2.72883 2.37192,2.72054 2.37562,2.71257 2.37939,2.70492 2.3832,2.69762 2.38701,2.69067 2.39079,2.68407 2.3945,2.67784 2.39811,2.67198 2.40159,2.66652 2.40489,2.66144 2.40798,2.65678 2.41082,2.65253 2.41339,2.6487 2.41564,2.6453 2.41754,2.64235 2.41906,2.63984 2.42016,2.6378 2.4208,2.63623 2.42094,2.63514 "/>
     <polygon id="_460214376" class="fil1" points="2.34776,2.86152 6.13402,6.64779 6.13611,6.65954 6.13969,6.6713 6.14469,6.68308 6.15101,6.69487 6.15857,6.70666 6.16731,6.71846 6.17713,6.73026 6.18794,6.74206 6.19968,6.75384 2.41341,2.96757 2.40167,2.95578 2.39086,2.94399 2.38104,2.93219 2.37231,2.92039 2.36474,2.90859 2.35842,2.89681 2.35343,2.88503 2.34984,2.87326 "/>
     <polygon id="_460214496" class="fil1" points="2.74717,3.22846 6.53344,7.01474 6.54296,7.02561 6.55239,7.03697 6.56169,7.04881 6.57087,7.06112 6.57989,7.07391 6.58873,7.08716 6.59739,7.10087 6.60583,7.11504 6.61404,7.12967 6.622,7.14474 6.6297,7.16026 6.63711,7.17622 6.6442,7.19261 6.65098,7.20944 6.65741,7.22669 6.66347,7.24437 6.66915,7.26246 6.67443,7.28096 6.67929,7.29987 6.68371,7.31919 6.68767,7.33891 6.69115,7.35902 6.69413,7.37952 6.69659,7.40041 6.69852,7.42169 6.69989,7.44333 6.70069,7.46535 6.7009,7.48774 6.70049,7.5105 6.69945,7.53361 6.69776,7.55707 6.6954,7.58089 2.90913,3.79462 2.91149,3.7708 2.91318,3.74733 2.91422,3.72422 2.91463,3.70147 2.91443,3.67908 2.91363,3.65706 2.91225,3.63541 2.91032,3.61414 2.90786,3.59325 2.90488,3.57275 2.9014,3.55264 2.89744,3.53292 2.89302,3.5136 2.88817,3.49469 2.88289,3.47619 2.8772,3.45809 2.87114,3.44042 2.86471,3.42317 2.85794,3.40634 2.85084,3.38995 2.84343,3.37399 2.83574,3.35847 2.82777,3.3434 2.81956,3.32877 2.81112,3.3146 2.80246,3.30089 2.79362,3.28763 2.7846,3.27485 2.77543,3.26254 2.76612,3.2507 2.75669,3.23934 "/>
     <polygon id="_460214256" class="fil1" points="4.20147,5.07252 7.98774,8.8588 7.98572,8.85979 7.9837,8.86078 7.98169,8.86177 7.97967,8.86276 7.97764,8.86376 7.97561,8.86475 7.97357,8.86574 7.97152,8.86672 4.18525,5.08045 4.1873,5.07946 4.18934,5.07848 4.19137,5.07748 4.1934,5.07649 4.19542,5.0755 4.19744,5.07451 4.19945,5.07352 "/>
     <polygon id="_460214112" class="fil1" points="2.73706,3.21783 6.52333,7.0041 6.53344,7.01474 2.74717,3.22846 "/>
     <polygon id="_460214448" class="fil1" points="4.18529,5.08048 7.97156,8.86675 7.96624,8.8692 4.17997,5.08293 "/>
     <polygon id="_460214160" class="fil1" points="3.9029,4.09643 7.68917,7.8827 7.69806,7.89208 7.70644,7.90183 7.71429,7.9119 7.72159,7.92229 7.72833,7.93296 7.73449,7.94389 7.74006,7.95505 7.74502,7.96643 7.74936,7.978 7.75306,7.98973 3.96679,4.20346 3.96309,4.19173 3.95875,4.18016 3.95379,4.16878 3.94822,4.15761 3.94206,4.14669 3.93532,4.13602 3.92802,4.12563 3.92018,4.11556 3.9118,4.10581 "/>
     <polygon id="_460215072" class="fil1" points="4.20161,5.07261 7.98788,8.85888 7.98774,8.8588 4.20147,5.07252 "/>
     <path id="_460215432" class="fil1" d="M7.6663 8.98366l0 0zm-3.78627 -3.78627l0 0z"/>
     <polygon id="_460215384" class="fil1" points="3.96686,4.2029 7.75313,7.98917 7.7547,7.99498 7.75614,8.00085 7.75744,8.00677 7.7586,8.01274 7.75963,8.01875 7.76053,8.02479 7.76131,8.03085 7.76196,8.03693 7.7625,8.04302 7.76293,8.04912 7.76325,8.05521 7.76346,8.0613 7.76357,8.06737 7.76359,8.07341 7.7635,8.07942 7.76333,8.0854 7.76308,8.09133 7.76274,8.09721 7.76232,8.10303 7.76182,8.10879 7.76126,8.11447 7.76063,8.12008 7.75993,8.1256 7.75917,8.13102 7.75836,8.13635 7.7575,8.14157 7.75658,8.14668 7.75562,8.15167 7.75463,8.15653 7.75359,8.16125 7.75252,8.16583 7.75142,8.17027 3.96515,4.384 3.96625,4.37956 3.96732,4.37498 3.96836,4.37026 3.96935,4.36539 3.97031,4.36041 3.97123,4.3553 3.97209,4.35008 3.97291,4.34475 3.97366,4.33933 3.97436,4.33381 3.97499,4.3282 3.97556,4.32252 3.97605,4.31676 3.97647,4.31094 3.97681,4.30506 3.97707,4.29913 3.97724,4.29315 3.97732,4.28714 3.9773,4.28109 3.97719,4.27503 3.97698,4.26894 3.97666,4.26285 3.97624,4.25675 3.9757,4.25066 3.97504,4.24458 3.97426,4.23852 3.97336,4.23248 3.97233,4.22647 3.97117,4.2205 3.96987,4.21458 3.96844,4.20871 "/>
     <polygon id="_460215216" class="fil1" points="4.00269,4.34266 7.78896,8.12893 7.78906,8.12913 4.00279,4.34286 "/>
     <polygon id="_460214784" class="fil1" points="3.86616,3.69994 7.65243,7.48621 7.63911,7.47337 7.62545,7.4612 3.83918,3.67493 3.85284,3.68709 "/>
     <polygon id="_460215288" class="fil1" points="3.83918,3.67493 7.62545,7.4612 7.61152,7.44935 7.59732,7.43751 7.58289,7.42565 7.56822,7.41376 7.55335,7.40184 7.53828,7.38987 7.52303,7.37785 7.50762,7.36575 7.49207,7.35357 7.47638,7.3413 7.46057,7.32893 7.44468,7.31644 7.42869,7.30383 7.41265,7.29109 7.39655,7.27819 7.38042,7.26513 7.36428,7.25191 7.34813,7.2385 7.332,7.22489 7.31589,7.21109 7.29984,7.19706 7.28385,7.18281 7.26794,7.16833 7.25213,7.15359 7.23643,7.13859 7.22086,7.12332 3.43459,3.33705 3.45016,3.35232 3.46586,3.36731 3.48168,3.38206 3.49758,3.39654 3.51357,3.41079 3.52963,3.42481 3.54573,3.43862 3.56186,3.45222 3.57801,3.46563 3.59415,3.47886 3.61028,3.49192 3.62638,3.50481 3.64243,3.51756 3.65841,3.53017 3.67431,3.54266 3.69011,3.55503 3.7058,3.5673 3.72135,3.57948 3.73676,3.59157 3.75202,3.6036 3.76708,3.61557 3.78196,3.62749 3.79662,3.63937 3.81106,3.65124 3.82525,3.66308 "/>
     <polygon id="_460214976" class="fil1" points="4.70072,4.5088 8.48699,8.29507 8.48541,8.30009 8.4838,8.30507 8.48217,8.31 8.4805,8.31488 8.47881,8.31971 8.47709,8.32451 8.47535,8.32927 8.47357,8.33399 8.47177,8.33868 8.46994,8.34334 8.46808,8.34797 8.46619,8.35258 8.46428,8.35717 8.46233,8.36173 8.46036,8.36628 8.45836,8.37081 8.45633,8.37534 8.45428,8.37985 8.45219,8.38436 8.45008,8.38886 8.44794,8.39337 8.44576,8.39787 8.44356,8.40238 8.44133,8.40689 8.43908,8.41142 8.43679,8.41596 8.43448,8.42051 8.43213,8.42508 8.42976,8.42967 8.42735,8.43428 8.42492,8.43893 8.42246,8.44359 8.41569,8.45624 8.40884,8.4687 8.4019,8.48099 8.39487,8.49311 8.38775,8.50506 8.38052,8.51683 8.37317,8.52845 8.3657,8.53991 8.35811,8.5512 8.35039,8.56235 8.34253,8.57335 8.33452,8.5842 8.32635,8.59491 8.31802,8.60548 8.30953,8.61591 8.30086,8.62621 8.292,8.63639 8.28296,8.64643 8.27373,8.65635 8.26429,8.66616 8.25465,8.67585 8.24478,8.68543 8.2347,8.69489 8.22438,8.70426 8.21383,8.71352 8.20303,8.72268 8.19198,8.73174 8.18068,8.74072 8.16911,8.74961 8.15726,8.75841 8.14515,8.76713 8.13274,8.77578 8.12872,8.77851 8.12463,8.78126 8.12046,8.78401 8.11623,8.78677 8.11193,8.78954 8.10757,8.7923 8.10317,8.79507 8.09871,8.79784 8.0942,8.80061 8.08966,8.80337 8.08507,8.80612 8.08046,8.80886 8.07581,8.81159 8.07115,8.81431 8.06646,8.81702 8.06176,8.81971 8.05704,8.82238 8.05232,8.82503 8.04759,8.82766 8.04287,8.83026 8.03815,8.83283 8.03344,8.83539 8.02875,8.8379 8.02408,8.84039 8.01943,8.84284 8.0148,8.84526 8.01021,8.84763 8.00565,8.84997 8.00114,8.85226 7.99667,8.85452 7.99225,8.85672 7.98788,8.85888 4.20161,5.07261 4.20598,5.07045 4.2104,5.06824 4.21487,5.06599 4.21939,5.0637 4.22394,5.06136 4.22854,5.05898 4.23316,5.05657 4.23781,5.05412 4.24248,5.05163 4.24718,5.04911 4.25188,5.04656 4.2566,5.04399 4.26132,5.04139 4.26605,5.03876 4.27077,5.03611 4.27549,5.03344 4.28019,5.03075 4.28488,5.02804 4.28955,5.02532 4.29419,5.02259 4.29881,5.01985 4.30339,5.01709 4.30794,5.01433 4.31244,5.01157 4.3169,5.0088 4.32131,5.00603 4.32567,5.00326 4.32996,5.0005 4.33419,4.99774 4.33836,4.99498 4.34245,4.99224 4.34647,4.9895 4.35888,4.98086 4.371,4.97214 4.38284,4.96334 4.39441,4.95445 4.40571,4.94547 4.41676,4.93641 4.42756,4.92724 4.43811,4.91798 4.44843,4.90862 4.45851,4.89915 4.46838,4.88957 4.47802,4.87989 4.48746,4.87008 4.4967,4.86016 4.50574,4.85011 4.51459,4.83994 4.52326,4.82964 4.53175,4.81921 4.54008,4.80864 4.54825,4.79793 4.55626,4.78708 4.56412,4.77608 4.57185,4.76493 4.57944,4.75363 4.5869,4.74218 4.59425,4.73056 4.60148,4.71878 4.60861,4.70683 4.61563,4.69472 4.62257,4.68243 4.62942,4.66996 4.63619,4.65732 4.63865,4.65265 4.64109,4.64801 4.64349,4.6434 4.64586,4.63881 4.64821,4.63424 4.65052,4.62969 4.65281,4.62515 4.65507,4.62062 4.6573,4.61611 4.6595,4.6116 4.66167,4.60709 4.66381,4.60259 4.66593,4.59809 4.66801,4.59358 4.67007,4.58907 4.67209,4.58454 4.67409,4.58001 4.67607,4.57546 4.67801,4.57089 4.67993,4.56631 4.68181,4.5617 4.68367,4.55707 4.6855,4.55241 4.6873,4.54772 4.68908,4.543 4.69082,4.53824 4.69254,4.53344 4.69423,4.52861 4.6959,4.52372 4.69753,4.5188 4.69914,4.51382 "/>
     <polygon id="_460214832" class="fil1" points="4.84744,2.28532 8.6337,6.07159 8.64,6.07951 8.64619,6.08817 8.65211,6.09753 8.65762,6.10752 8.66254,6.11811 8.66674,6.12923 8.67004,6.14085 8.6723,6.1529 4.88603,2.36663 4.88377,2.35457 4.88047,2.34296 4.87628,2.33183 4.87135,2.32125 4.86585,2.31126 4.85992,2.3019 4.85373,2.29324 "/>
     <polygon id="_460215240" class="fil1" points="5.03309,2.4019 8.81935,6.18817 8.81944,6.18888 8.81925,6.18997 8.81876,6.19143 8.818,6.19322 8.81695,6.19535 8.81564,6.1978 8.81406,6.20055 8.81222,6.20358 8.81012,6.20689 8.80777,6.21045 8.80517,6.21426 8.80233,6.21829 8.79926,6.22253 8.79595,6.22696 8.79242,6.23158 8.78866,6.23637 8.78469,6.2413 8.7805,6.24638 8.77611,6.25157 8.77151,6.25687 8.76672,6.26226 8.76173,6.26772 8.75656,6.27325 8.7512,6.27882 8.74567,6.28442 8.73996,6.29004 8.73409,6.29565 8.72805,6.30126 8.72185,6.30683 8.7155,6.31235 4.92924,2.52608 4.93559,2.52056 4.94178,2.51498 4.94782,2.50938 4.95369,2.50376 4.9594,2.49815 4.96494,2.49255 4.97029,2.48698 4.97546,2.48145 4.98045,2.47598 4.98524,2.47059 4.98984,2.4653 4.99423,2.46011 4.99842,2.45503 5.00239,2.4501 5.00615,2.44531 5.00968,2.44069 5.01299,2.43626 5.01606,2.43202 5.0189,2.42798 5.0215,2.42418 5.02385,2.42062 5.02595,2.41731 5.02779,2.41428 5.02937,2.41153 5.03069,2.40908 5.03173,2.40695 5.03249,2.40515 5.03298,2.4037 5.03318,2.40261 "/>
     <polygon id="_460215312" class="fil1" points="4.92924,2.52608 8.7155,6.31235 8.70882,6.31785 8.70171,6.32332 8.69419,6.32875 8.68627,6.33414 8.67799,6.33946 8.66936,6.34472 8.66041,6.34988 8.65114,6.35495 8.64159,6.3599 8.63178,6.36472 8.62172,6.36941 8.61144,6.37394 8.60095,6.37831 8.59029,6.38251 8.57946,6.38651 8.56849,6.39031 8.5574,6.39389 8.54622,6.39724 8.53495,6.40034 8.52363,6.4032 8.51227,6.40578 8.50089,6.40808 8.48952,6.41009 8.47818,6.41179 8.46688,6.41317 8.45565,6.41421 8.4445,6.41491 8.43346,6.41525 8.42256,6.41521 8.4118,6.4148 8.40122,6.41398 8.39082,6.41275 4.60456,2.62648 4.61495,2.6277 4.62554,2.62852 4.63629,2.62894 4.6472,2.62898 4.65824,2.62864 4.66938,2.62794 4.68061,2.62689 4.69191,2.62552 4.70326,2.62381 4.71463,2.62181 4.726,2.61951 4.73736,2.61693 4.74869,2.61407 4.75995,2.61096 4.77113,2.60761 4.78222,2.60404 4.79319,2.60024 4.80402,2.59624 4.81469,2.59204 4.82517,2.58767 4.83545,2.58314 4.84551,2.57845 4.85532,2.57363 4.86487,2.56868 4.87414,2.56361 4.88309,2.55844 4.89172,2.55319 4.9,2.54787 4.90792,2.54248 4.91544,2.53705 4.92256,2.53157 "/>
    </g>
    <path id="_637658512" class="fil1" d="M4.17044 3.43597l0 0zm0.164276 0.109051l0 0zm0.206374 0.188177l0 0zm-0.661067 1.46419l0 0zm-1.83087 -0.864551l0 0zm2.7629 -2.07802c0.0046811,-0.00236614 0.0650157,0.0464528 0.0739724,0.111811 0.00894488,0.065748 -0.0385551,0.119689 -0.0712362,0.145283 -0.0327244,0.0259764 -0.0459567,0.0354291 -0.0459606,0.0354291 0,0 0.0603622,-0.00590551 0.121472,-0.0354291 0.061126,-0.0291378 0.133142,-0.106705 0.141709,-0.110244 0.00896063,-0.00314961 -0.034248,0.065752 -0.102776,0.124417 -0.0689055,0.0586614 -0.214902,0.115744 -0.324681,0.100394 -0.0904173,-0.0122795 -0.160098,-0.051626 -0.217055,-0.0977559 -0.0555827,0.0561614 -0.129154,0.0434016 -0.153961,0.0194055 -0.0268465,-0.026374 -0.123012,-0.171268 -0.192709,-0.172445 -0.0696772,-0.0011811 -0.142083,-0.019685 -0.236677,-0.0787402 -0.092,-0.0576457 -0.107677,-0.1045 -0.179878,-0.133469 -0.139217,-0.0558543 -0.180343,0.0937598 -0.194953,0.198303 0.00165354,-0.000507874 0.00334646,-0.000913386 0.00498425,-0.00144882 -0.00335827,0.0124173 -0.0065,0.0254331 -0.00937402,0.0389882 -0.0174567,0.182866 0.0129449,0.406846 0.0276614,0.449213 0.00030315,0.000814961 0.00351575,0.00901969 0.00346063,0.00909055 0.0134016,0.0351929 0.0279764,0.0609921 0.0485118,0.0914685 0.0312559,0.0463898 0.0720236,0.090811 0.113016,0.129071l6.69291e-005 -9.84252e-005c0.0334882,0.0315 0.0708622,0.0622126 0.110961,0.0921417 -0.00367323,0 0.134508,0.0935472 0.137039,0.0925197 0.0467087,0.0287323 0.095,0.0562992 0.144043,0.0822874l-0.000137795 8.66142e-005 0.0155394 0.00827953 0.000169291 -0.000114173 0.130429 0.0736299 -0.000137795 8.26772e-005 0.0149173 0.0089685c0.0534016,0.0324291 0.11437,0.0719961 0.164248,0.109079l0.0143071 0.0106575 0.000122047 -4.33071e-005c0.0632441,0.0474094 0.130949,0.105815 0.182598,0.166146l-0.000153543 7.08661e-005c0.00322441,0.00378346 0.00640551,0.00754724 0.00951575,0.0113465 0.021189,0.0254252 0.0412795,0.0547717 0.0560984,0.0819055 0.0189016,0.0346063 0.043126,0.0972283 0.0568031,0.133453l-0.000192913 0.000102362c0.0230709,0.0609528 0.0453937,0.130953 0.0585669,0.195185l-0.000177165 0.00011811c0.0225079,0.109717 0.0267047,0.223602 -0.00602756,0.345957l-8.66142e-005 4.33071e-005c-0.00173622,0.00629528 -0.00361024,0.0126063 -0.00556693,0.0189213l0.000192913 -8.66142e-005c-0.0167087,0.0539016 -0.0381181,0.0985827 -0.0645276,0.148524 -0.0718465,0.135866 -0.155858,0.240398 -0.28972,0.332185 -0.0424488,0.0291063 -0.0985591,0.0603504 -0.144862,0.0831024l-0.000137795 -8.26772e-005c-0.00538976,0.00264173 -0.0107362,0.00529921 -0.0162244,0.00792913l4.33071e-005 2.75591e-005 -0.0053189 0.00244488c-0.102449,0.0478819 -0.192185,0.0839646 -0.299945,0.114461 -0.109484,0.0299055 -0.223874,0.0485472 -0.336724,0.0614409l-8.26772e-005 -0.000153543c-0.140091,0.0155472 -0.278433,0.0214528 -0.417374,0.0213228 -0.0147756,-2.75591e-005 -0.173894,-0.00393701 -0.173894,-0.00385039 -0.0975276,-0.00487402 -0.185484,-0.0120236 -0.282634,-0.025189l0 -7.08661e-005 -0.0148031 -0.00200787 3.93701e-006 0.000110236 -0.106752 -0.0166575 -0.13815 -0.0275669c-0.00180709,-0.000409449 -0.0160748,-0.00391732 -0.0159331,-0.00341339 -0.161315,-0.037937 -0.396657,-0.111213 -0.500539,-0.247311 -0.0211969,-0.0277677 -0.0502165,-0.0800394 -0.065374,-0.113154 -0.084374,-0.183693 -0.0139606,-0.50411 0.221382,-0.508051 -0.0378858,-0.140213 -0.0603937,-0.289642 0.144035,-0.31852 0.0782559,-0.0108543 0.185752,0.0278307 0.315354,0.0699173 0.00125197,-0.00141339 0.0354803,-0.0413268 0.0350276,-0.0419764 0.0595157,-0.0762283 0.100224,-0.148917 0.130807,-0.240957l0.000125984 8.26772e-005c0.0329134,-0.0975276 0.0519528,-0.210512 0.0524291,-0.312685 0.000295276,-0.0634882 -0.0152598,-0.123594 -0.0482835,-0.177157l6.69291e-005 -2.75591e-005c-0.0169488,-0.0281614 -0.0561732,-0.0749094 -0.0812638,-0.0989173l-0.00015748 0.000110236c-0.00601575,-0.00577165 -0.0865787,-0.0750236 -0.0872126,-0.0740039 -0.0270236,-0.020248 -0.0597362,-0.0449843 -0.0840906,-0.0669409l0.00019685 -0.000181102c-0.00325591,-0.00290945 -0.00651969,-0.00580709 -0.00967323,-0.00872835l-0.000248031 0.000251969c-0.0254291,-0.0239764 -0.0530315,-0.0538543 -0.073189,-0.0818937l0.00101181 0.000874016c-0.0443898,-0.0620827 -0.063622,-0.125024 -0.0520118,-0.185524 0.0206299,-0.105516 0.127701,-0.170472 0.128866,-0.161421 0.00116929,0.00905512 -0.0875906,0.101579 -0.073189,0.226378 0.014,0.125205 0.297039,0.253949 0.399417,0.366949 0.101996,0.113382 0.190768,0.310244 0.161961,0.566157 -0.0179803,0.159472 -0.0811457,0.287795 -0.12752,0.362228 0.0330472,0.00590157 0.0668543,0.0106811 0.101437,0.0137559 0.299756,0.0263858 0.533728,-0.085437 0.722949,-0.141728 0.177528,-0.0533189 0.324748,0.0486457 0.360791,0.174583 2.75591e-005,-0.000228346 7.08661e-005,-0.000562992 6.69291e-005,-0.000562992 0.017622,0.0616417 0.0101693,0.134598 -0.00170866,0.181102 0.0144055,-0.0139291 0.0269331,-0.0277047 0.0375433,-0.0413386l9.84252e-005 0.00019685c0.0552756,-0.0707756 0.0632913,-0.136634 0.0672638,-0.197059 0.00658268,-0.0948819 -0.0833346,-0.344878 -0.230874,-0.47087 -0.147169,-0.126382 -0.341433,-0.251189 -0.494413,-0.435839 -0.15339,-0.185039 -0.21763,-0.338594 -0.293531,-0.551591 -0.0716417,-0.201579 -0.101618,-0.401976 -0.0354291,-0.607886 0.142878,-0.443327 0.577705,-0.442929 0.880193,-0.510646 0.0521929,-0.011811 0.18922,-0.0637795 0.318094,0.0484252 0.00640551,0.00555906 0.0130157,0.0110866 0.0196693,0.0166063l-0.000224409 -0.000464567c0.117252,0.0992441 0.293358,0.203083 0.383472,0.239772 0.091874,0.0374016 0.150654,0.124016 0.0704724,0.222445 -0.0802205,0.0984291 -0.143264,0.124803 -0.283803,0.123622 -0.133362,-0.00111811 -0.271846,-0.0149134 -0.286378,-0.0163976 0.0570079,0.0354094 0.208272,0.127236 0.230681,0.149079 0.0196811,0.0193228 0.0691535,0.0572283 0.0720827,0.105197 0.0605433,0.0379449 0.114445,0.0659449 0.14985,0.0715827 0.146748,0.0232323 0.235138,-0.0574843 0.263941,-0.100394 0.0288071,-0.0429173 0.0186969,-0.107882 0.00387795,-0.132287 -0.0144055,-0.0240197 -0.0303465,-0.0393701 -0.0256811,-0.0413386z"/>
   </g>
  </g>
  <path class="fil2" d="M3.41333 -3.93701e-006c1.88513,0 3.41333,1.5282 3.41333,3.41333 0,1.88513 -1.5282,3.41333 -3.41333,3.41333 -1.88513,0 -3.41333,-1.5282 -3.41333,-3.41333 0,-1.88513 1.5282,-3.41333 3.41333,-3.41333z"/>
  <path class="fil3" d="M3.05059 2.68739c0.0767677,0.213366 0.141823,0.366902 0.296642,0.551642 0.154823,0.184748 0.351276,0.309654 0.500252,0.43585 0.148969,0.126205 0.240043,0.376008 0.233539,0.470984 -0.00650394,0.0949764 -0.022752,0.202965 -0.218894,0.322665 -0.196138,0.119681 -0.372622,0.164098 -0.699972,0.169862 -0.327354,0.00575591 -0.719331,-0.093437 -0.85576,-0.135902 -0.136433,-0.0424685 -0.201252,-0.0782008 -0.220319,-0.0964094 -0.0190709,-0.0182323 -0.0489843,-0.0730551 -0.0489843,-0.0730551 0,0 -0.118421,0.00185039 -0.197768,0.132417 -0.079378,0.130583 -0.109299,0.259382 0.0260118,0.468858 0.135307,0.209472 0.594583,0.29663 0.892528,0.327858 0.297933,0.0312362 0.886,0.0351378 1.2542,-0.104075 0.368197,-0.139217 0.528248,-0.26672 0.668748,-0.554256 0.140504,-0.287524 0.0299134,-0.565949 -0.0494449,-0.753307 -0.0793583,-0.18735 -0.35389,-0.370803 -0.610197,-0.504803 -0.256299,-0.134008 -0.498295,-0.30965 -0.56465,-0.497 -0.0282323,-0.0797244 -0.11185,-0.799524 0.173469,-0.685094 0.0130197,0.00522835 0.024126,0.0108425 0.0340472,0.0168543 0.0478386,0.0289921 0.0685906,0.0673189 0.147835,0.116386 0.095685,0.059252 0.168866,0.0775591 0.23935,0.0788937 0.0704843,0.00133465 0.167906,0.146008 0.195039,0.172315 0.0271378,0.0263031 0.111984,0.0391575 0.16915,-0.034626 0.0571693,-0.0737835 -0.0264016,-0.134854 -0.0535394,-0.161157 -0.0271417,-0.0263031 -0.234402,-0.149299 -0.234402,-0.149299 0,0 0.148303,0.0151772 0.290654,0.0164016 0.142346,0.00122835 0.206142,-0.0250748 0.287224,-0.123524 0.0810866,-0.0984567 0.0214213,-0.185004 -0.0714961,-0.222437 -0.0929173,-0.037437 -0.276815,-0.143913 -0.407335,-0.256083 -0.130528,-0.112169 -0.268996,-0.0601299 -0.321496,-0.0484488 -0.306075,0.0680591 -0.745803,0.0673898 -0.890264,0.510917 -0.0669961,0.205654 -0.0366772,0.406016 0.0358307,0.607571z"/>
  <path class="fil4" d="M3.43478 2.34883c0.010437,-0.0659685 0.0287992,-0.122862 0.0586102,-0.158417 -0.00230315,-0.000346457 -0.0046063,-0.000716535 -0.00687795,-0.00109449 -0.0441772,-0.00737008 -0.0867126,-0.0225866 -0.128791,-0.0374567 -0.0365079,-0.0128898 -0.129437,-0.0310512 -0.16311,-0.0502087 -0.0168386,0.0579252 -0.0307756,0.119453 -0.0394055,0.183142 -0.00168504,0.0125157 -0.00324803,0.0247598 -0.00472441,0.036815 0.0348898,0.0126063 0.128429,0.0241811 0.164819,0.0294764 0.039374,0.00572441 0.0801181,0.00435039 0.11948,-0.00225591z"/>
  <path class="fil5" d="M4.30694 1.68114c-0.0209882,-0.0154961 -0.0414409,-0.0313622 -0.0609331,-0.0474094 0.0101496,0.0225433 0.0240039,0.0459409 0.0425079,0.0698583 0.131449,0.169874 0.146626,0.169594 0.146626,0.169594 -0.0610906,-0.0724528 -0.101594,-0.134996 -0.128201,-0.192043z"/>
  <path class="fil6" d="M4.38272 2.37147c-0.00811811,-0.0076063 -0.00462992,-0.00347244 -0.0208425,-0.019185 -0.0162126,-0.0157126 -0.235559,-0.150457 -0.235559,-0.150457 -0.12324,-0.00377165 -0.186815,-0.0171181 -0.208209,-0.020626 -0.00257874,-0.00042126 -0.00455118,-0.000700787 -0.00593701,-0.000807087 0,0 0.20902,0.162693 0.297673,0.239059 0.0523307,0.0450827 0.115465,0.0648307 0.152067,0.0451457 0.0495472,-0.0266457 0.0384528,-0.0723268 0.0208071,-0.0931299z"/>
  <circle class="fil7" transform="matrix(0.918305 -0.947346 0.947345 0.918306 3.96846 2.00392)" r="0.0603307"/>
  <circle class="fil8" transform="matrix(0.561566 -0.579325 0.579325 0.561566 3.96846 2.00392)" r="0.0603307"/>
  <path class="fil9" d="M3.93351 1.97004c0.0106417,-0.0109764 0.0251929,-0.0158622 0.0393189,-0.0145984 0.0021811,0.0134606 -0.00179921,0.0277362 -0.0120118,0.0382717 -0.0109961,0.0113425 -0.0265472,0.0156063 -0.0409646,0.0126929 -0.000665354,-0.0130236 0.00387008,-0.0262717 0.0136575,-0.0363661z"/>
  <path class="fil10" d="M2.72535 4.22782c0.00584646,-0.00194488 0.152217,-0.177587 0.181488,-0.433244 0.0292795,-0.255654 -0.0604961,-0.452772 -0.163937,-0.565961 -0.103425,-0.113185 -0.389665,-0.241992 -0.403972,-0.366898 -0.014315,-0.124898 0.0754606,-0.217272 0.0741575,-0.226382 -0.00129921,-0.00911024 -0.109283,0.0559488 -0.130106,0.161335 -0.0208228,0.105386 0.0533386,0.218567 0.192559,0.32135 0.139213,0.102791 0.2485,0.202972 0.247197,0.370811 -0.00129921,0.167831 -0.0494449,0.349976 -0.128807,0.473583 -0.0793583,0.123594 -0.148315,0.176941 -0.148315,0.176941l0.279736 0.0884646z"/>
  <path class="fil11" d="M2.71048 3.3165c0.00204331,-0.00330709 0.00801575,-0.00409449 0.00983858,0 -0.000208661,-0.000322835 -0.000102362,-0.00026378 0.00034252,0.000200787 0.000393701,0.00034252 0.000807087,0.000665354 0.00119291,0.00103937 0.000685039,0.000665354 0.00126772,0.00151969 0.00174409,0.00236614 0.000787402,0.0013937 0.00140945,0.00286614 0.00214567,0.00429921 0.00131102,0.00117717 0.00227953,0.00258661 0.00288583,0.0044252 0.00118504,0.00361811 -0.0013622,0.00702362 -0.00464173,0.00817717 -0.0053622,0.00187402 -0.0105276,-0.00227165 -0.0134488,-0.00636614 -0.0026811,-0.00376772 -0.00240157,-0.0103307 -5.90551e-005,-0.0141417z"/>
  <path class="fil4" d="M2.52861 4.053c0.0117795,0.0144803 0.0260551,0.0272638 0.0400709,0.0381496 0.0174528,0.013563 0.0366102,0.0249567 0.0564803,0.0346772 -0.0174291,0.0220315 -0.0345709,0.0403701 -0.0493228,0.0547205l-0.130228 -0.041189c0,0 0.0346142,-0.026811 0.083,-0.0863583z"/>
  <path class="fil4" d="M2.61078 3.93441c0.015437,0.0144094 0.0343622,0.0259213 0.0520157,0.0350394 0.0132677,0.00685433 0.0272638,0.0130984 0.041685,0.0181063 -0.00301969,0.00743307 -0.00604331,0.0147126 -0.00906693,0.0217008 -0.0177244,0.0409528 -0.0397362,0.0762323 -0.0618071,0.105614 -0.0182008,-0.00897244 -0.0360984,-0.0189528 -0.0523898,-0.0311142 -0.0154173,-0.0115039 -0.0315591,-0.025378 -0.0440315,-0.041437 0.0176457,-0.0224055 0.036874,-0.0489449 0.0567441,-0.0798976 0.00579134,-0.00902362 0.0113937,-0.0183898 0.0168504,-0.0280118z"/>
  <path class="fil4" d="M2.71072 3.82191c0.0142598,0.00481496 0.0294606,0.00919291 0.0449291,0.0119764 -0.0137913,0.0510394 -0.0298031,0.0992953 -0.046311,0.141417 -0.0139409,-0.0047874 -0.0273543,-0.0108268 -0.0397244,-0.0175512 -0.0169803,-0.00922441 -0.036815,-0.0206772 -0.0521693,-0.0353976 0.0199567,-0.0369961 0.0374173,-0.0778228 0.0521063,-0.120976 0.0120591,0.00835039 0.0255236,0.0152441 0.0411693,0.0205315z"/>
  <path class="fil4" d="M2.78588 3.6941c-0.00684646,0.0428465 -0.0160906,0.0858031 -0.0268701,0.12711 -0.0174331,-0.00306299 -0.0345039,-0.00840157 -0.0495866,-0.0141142 -0.0135315,-0.00512205 -0.0251063,-0.0114843 -0.0354606,-0.0190079 0.0110118,-0.034 0.0202717,-0.0693307 0.0276969,-0.105264 0.0265472,0.0100197 0.0551417,0.0131063 0.0842205,0.0112756z"/>
  <path class="fil4" d="M2.74777 3.54235c0.0169213,-0.00187402 0.0338268,-0.00406299 0.0506457,-0.00674409 0.000787402,0.0461654 -0.00317717,0.0953307 -0.0104764,0.144866 -0.0289173,0.00220866 -0.0573701,-0.000653543 -0.0836063,-0.0110472 0.00793701,-0.0411693 0.0133819,-0.0830118 0.0161929,-0.124492 0.00911417,-0.000688976 0.0182008,-0.00158268 0.0272441,-0.00258268z"/>
  <path class="fil4" d="M2.71731 3.42421c0.00781496,-0.00180709 0.0157008,-0.00321654 0.0237165,-0.00400394 0.0126535,-0.00124016 0.0254252,-0.00197638 0.038063,-0.00348819 0.00834646,0.0228268 0.0141063,0.0460669 0.0165039,0.0695118 0.00118898,0.0116457 0.00199606,0.0235827 0.00246063,0.035752 -0.0126339,0.00207874 -0.025315,0.00390157 -0.0380315,0.00542126 -0.0128346,0.00152362 -0.0257205,0.00290551 -0.0386299,0.00386614 0.000767717,-0.0142205 0.00123228,-0.0283858 0.00134252,-0.042437 0.000173228,-0.022752 -0.00174016,-0.0442047 -0.0054252,-0.064622z"/>
  <path class="fil4" d="M2.68834 3.30547c0.00551969,-0.00248031 0.0133701,-0.00617323 0.0221457,-0.00967717 0.0256299,0.0338031 0.0479213,0.0700591 0.0634291,0.10765 -0.0154803,0.00162598 -0.031126,0.00231102 -0.0465709,0.00499213 -0.00425591,0.000744094 -0.00849213,0.00160236 -0.0127047,0.00253937 -0.00809843,-0.036185 -0.0221024,-0.0689843 -0.0407126,-0.0994528 0.0049685,-0.00199606 0.0098189,-0.00399213 0.0144134,-0.00605118z"/>
  <path class="fil4" d="M2.62743 3.20344c0.0256732,0.0246496 0.051374,0.0520945 0.0747244,0.0816024 -0.00417323,0.00167323 -0.00809449,0.0033189 -0.011622,0.00479921 -0.00797638,0.0033189 -0.015752,0.00707087 -0.0235433,0.0107677 -0.0182913,-0.0277362 -0.0405157,-0.053563 -0.0656181,-0.0783307 0.00835827,-0.00670079 0.0169764,-0.0130472 0.0260591,-0.0188386z"/>
  <path class="fil4" d="M2.535 3.12514c0.0246811,0.0183819 0.0532362,0.0416614 0.0822323,0.068689 -0.00892126,0.00585433 -0.0174291,0.0122244 -0.0256969,0.0189331 -0.0237992,-0.022563 -0.05,-0.0443071 -0.0778307,-0.065878 0.00635039,-0.00793307 0.0132087,-0.0162087 0.0212953,-0.0217441z"/>
  <path class="fil4" d="M2.42307 3.04893c-0.00508268,0.0044685 -0.00995276,0.0091811 -0.0146929,0.0140394 -0.0292913,-0.026878 -0.0540827,-0.0542244 -0.0738346,-0.0817323 0.0270236,0.0239409 0.0578425,0.046563 0.0885276,0.0676929z"/>
  <path class="fil4" d="M2.43462 3.05683c0.0252362,0.017126 0.0500276,0.0332362 0.0721299,0.0481969 0.00533465,0.00360236 0.0110197,0.00757087 0.0169803,0.0118622 -0.00701969,0.00591732 -0.0130591,0.0133268 -0.0189252,0.0202598 -0.000496063,0.00057874 -0.000988189,0.00115748 -0.00147244,0.00174409 -0.00912598,-0.00695669 -0.0183819,-0.0139094 -0.0277992,-0.0208661 -0.0205079,-0.0151417 -0.0395748,-0.0305118 -0.0571575,-0.0460591 0.00520079,-0.0052874 0.0106063,-0.0103543 0.0162441,-0.0151378z"/>
  <path class="fil12" d="M3.94116 4.46982c0,0 0.00131102,-0.0021378 0.00348819,-0.0062126 0.0131024,-0.0244685 0.0575748,-0.118642 0.0375,-0.235783 -0.0234213,-0.13661 -0.179543,-0.255657 -0.370803,-0.199063 -0.191252,0.0566063 -0.427807,0.168303 -0.731071,0.14172 -0.303256,-0.0265748 -0.55111,-0.176413 -0.69748,-0.156138 -0.146362,0.0202756 -0.189303,0.117854 -0.169783,0.21348 0.0195079,0.0956339 0.0370748,0.169791 0.0761142,0.228331 0.0390315,0.0585512 0.398118,0.16198 0.772819,0.199067 0.374705,0.0370827 0.688906,-0.00195669 0.84113,-0.0644016 0.152217,-0.0624488 0.238087,-0.121 0.238087,-0.121z"/>
  <path class="fil4" d="M2.01333 4.14391c0,0 -0.00353937,0.0629646 0.0587323,0.126858 0.0167559,0.0172047 0.0416811,0.035874 0.0755394,0.0549646 -0.00671654,0.0361024 0.000917323,0.0767165 0.00432677,0.111563 0.00214961,0.0219213 0.00545669,0.044 0.0116142,0.0651969 -0.0393425,-0.0169213 -0.0654055,-0.0328189 -0.0744213,-0.0463346 -0.0390394,-0.0585394 -0.0566063,-0.132697 -0.0761142,-0.228331 -0.00580709,-0.0285039 -0.00602756,-0.0571614 0.000322835,-0.0839173z"/>
  <path class="fil4" d="M2.37608 4.48218c0.00122835,-0.0132323 0.0028622,-0.0410906 0.00937402,-0.064815 0.0606575,0.0165984 0.130217,0.0320866 0.209307,0.0455866 -0.00981102,0.026748 -0.0126929,0.0566929 -0.0129646,0.0844409 -0.000216535,0.0229882 0.00119685,0.045878 0.00353543,0.068685 -0.0737047,-0.0134882 -0.143276,-0.028685 -0.205728,-0.0445551 -0.00535827,-0.0290906 -0.00633071,-0.0591969 -0.00352362,-0.0893425z"/>
  <path class="fil4" d="M2.60966 4.46544c0.00897244,0.00148425 0.0180276,0.00295669 0.0272323,0.00437795 0.0571378,0.0088622 0.122744,0.014437 0.193142,0.0172087 -0.00283858,0.0114055 -0.00543307,0.022878 -0.00730709,0.0344882 -0.0038622,0.0239449 -0.00659449,0.0482638 -0.0061378,0.072563 0.000338583,0.0190276 0.00198425,0.0379134 0.0041811,0.0567638 -0.0754173,-0.00846063 -0.149728,-0.0194291 -0.220449,-0.0320512 -0.00238976,-0.0219921 -0.00388976,-0.0440748 -0.0036811,-0.066185 0.000271654,-0.0284921 0.0023937,-0.0598583 0.0130197,-0.0871654z"/>
  <path class="fil4" d="M3.42871 4.4576c0.0612441,-0.00786614 0.118736,-0.0169488 0.170106,-0.0269409 0.000988189,0.00197638 0.0019252,0.0038937 0.00279134,0.00564567 0.0127283,0.0257913 0.0216378,0.0537323 0.0236535,0.0825748 0.00224803,0.032185 0.00141732,0.0655197 -0.00583071,0.0970591 -0.00019685,0.000866142 -0.000456693,0.00171654 -0.000669291,0.00258268 -0.0610512,0.0162913 -0.135465,0.0296811 -0.220579,0.0386457 0.00381102,-0.0086811 0.00779134,-0.0172953 0.0117205,-0.0260236 0.0153622,-0.0340984 0.0307756,-0.0715236 0.0290315,-0.10974 -0.000905512,-0.0198898 -0.00407087,-0.0422087 -0.0102244,-0.0638031z"/>
  <path class="fil4" d="M3.85244 4.43152c-0.00652362,-0.0243386 -0.0148228,-0.0491102 -0.0264685,-0.0718898 0.142559,-0.0733622 0.150406,-0.156626 0.150406,-0.156654 0.00240551,0.00819685 0.00434646,0.0164843 0.00577559,0.0248425 0.0200748,0.117142 -0.0243976,0.211315 -0.0375,0.235783 -0.00217717,0.0040748 -0.00348819,0.0062126 -0.00348819,0.0062126 0,0 -0.0274724,0.0187362 -0.0788543,0.0462913 0.000996063,-0.0284252 -0.00247638,-0.0570394 -0.00987008,-0.0845866z"/>
  <path class="fil4" d="M3.63844 4.50383c-0.00406299,-0.0265157 -0.0120906,-0.0523819 -0.0244685,-0.0761732 0.0627598,-0.0127441 0.115516,-0.0268504 0.153504,-0.0417402 0.0162047,-0.0063622 0.0311457,-0.0129094 0.0449409,-0.0195433 0.0132087,0.0259331 0.0230512,0.0540945 0.0288268,0.0825354 0.00505118,0.0248937 0.00733465,0.0502441 0.00574409,0.0752992 -0.0376457,0.0196378 -0.0859528,0.0428307 -0.143913,0.0666142 -0.0200984,0.00824016 -0.0431102,0.016063 -0.068626,0.0233622 0.00122835,-0.00507874 0.0023189,-0.0102244 0.00311417,-0.0154134 0.00474803,-0.0308819 0.00561417,-0.0639961 0.000877953,-0.0949409z"/>
  <path class="fil4" d="M3.41461 4.45937c0.00804331,0.0260748 0.0111142,0.0537244 0.00908268,0.0757717 -0.00351575,0.0381575 -0.0191732,0.0730315 -0.0354134,0.107272 -0.00246063,0.00518504 -0.00459449,0.0107283 -0.0066378,0.0164134 -0.0466969,0.00453937 -0.0964055,0.00776378 -0.148728,0.00944882 0.00862992,-0.0340709 0.0121063,-0.0700433 0.015374,-0.103697 0.00246063,-0.0253622 0.00594094,-0.0580079 0.00266929,-0.0884882 0.0561299,-0.00454724 0.111161,-0.010185 0.163654,-0.0167205z"/>
  <path class="fil4" d="M3.04025 4.48771c0.0651732,-0.00184252 0.131327,-0.00542913 0.196228,-0.0104724 0.00362992,0.0313976 -0.000807087,0.0660591 -0.00350787,0.0915197 -0.00340945,0.032122 -0.00668504,0.0671102 -0.0153465,0.0999685 -0.0570669,0.00149213 -0.117091,0.00117323 -0.179551,-0.00129921 -0.000385827,-0.00755512 -0.000787402,-0.0145906 -0.000885827,-0.0206811 -0.00092126,-0.053374 0.00514961,-0.106047 0.00306299,-0.159035z"/>
  <path class="fil4" d="M2.83239 4.56502c0.0020315,-0.0261378 0.00611417,-0.0520866 0.0128386,-0.0774331 0.0577835,0.00193307 0.118571,0.00201575 0.180409,0.000511811 0.0021378,0.0497362 -0.00340945,0.0992244 -0.00344094,0.149295 0,0.00979921 0.000307087,0.0195906 0.000503937,0.0293937 -0.052063,-0.00233071 -0.105744,-0.00612598 -0.160756,-0.0115669 -0.00873228,-0.000866142 -0.0174646,-0.00179528 -0.0261772,-0.00272441 -0.000582677,-0.0048189 -0.00114567,-0.0096378 -0.00161811,-0.0144488 -0.0023937,-0.0242795 -0.00364173,-0.0486693 -0.00175984,-0.0730276z"/>
  <path class="fil4" d="M2.16097 4.33303c0.0512992,0.0272441 0.120839,0.0550827 0.210685,0.0804882 -0.00591732,0.0215039 -0.0080748,0.0447874 -0.00953937,0.0591654 -0.00325591,0.0319409 -0.00291339,0.0638858 0.0019685,0.0948583 -0.0724724,-0.0188937 -0.134709,-0.0385866 -0.181819,-0.057311 -0.00817717,-0.0233504 -0.0124764,-0.0475669 -0.0154409,-0.072937 -0.00362992,-0.0310157 -0.0112598,-0.0700945 -0.00585433,-0.104264z"/>
  <path class="fil13" d="M3.16216 4.63839c0.327354,-0.00576378 0.503843,-0.0501811 0.699976,-0.169862 0.0712323,-0.0434764 0.118724,-0.0854094 0.150654,-0.125732 0.0280354,0.0527047 0.0101063,0.102823 -0.0364685,0.148681 -0.261087,0.257071 -0.882693,0.281362 -1.2369,0.228157 -0.374154,-0.0562008 -0.731941,-0.185575 -0.703083,-0.339287 0.00201575,-0.00961417 0.00945669,-0.014874 0.0180354,-0.0177441 0.00987402,0.0160079 0.0221535,0.0343386 0.0317126,0.0434724 0.019063,0.0182126 0.0838858,0.0539449 0.220319,0.0964134 0.136425,0.0424646 0.528402,0.141661 0.855756,0.135902z"/>
  <path class="fil4" d="M3.29962 2.58259c-0.0358622,0.00816535 -0.0729843,0.0138228 -0.110071,0.0146299 -0.00296457,-0.0117756 -0.00591732,-0.0237638 -0.00885039,-0.0360472 -0.0148858,-0.0625236 -0.0240394,-0.124941 -0.029189,-0.185043 0.038311,0.00574409 0.0772402,0.00645276 0.115941,0.00533071 0.0446102,-0.00127953 0.0897717,-0.00239764 0.133642,-0.0114331 0.0121299,-0.00249213 0.0246535,-0.00558268 0.0368583,-0.00966535 -0.013878,0.0505787 -0.0242165,0.110717 -0.0271024,0.17676 -0.0345,0.0205039 -0.0722205,0.0365866 -0.111228,0.0454685z"/>
  <path class="fil4" d="M3.41856 2.69389c-0.0307126,0.025437 -0.0717165,0.0416772 -0.107409,0.0518268 -0.023311,0.0066378 -0.0479213,0.0122126 -0.0729685,0.0159331 -0.0157953,-0.045315 -0.0306693,-0.0948937 -0.0449252,-0.149929 0.0371654,-0.000929134 0.0742913,-0.00611417 0.110331,-0.0147677 0.0366417,-0.00877953 0.0733819,-0.0229449 0.106677,-0.0418661 -0.001,0.0441929 0.00140945,0.090815 0.00829528,0.138803z"/>
  <path class="fil4" d="M3.40658 2.89696c-0.0259134,0.0178228 -0.053122,0.0405748 -0.0824134,0.0574094 -0.0298386,-0.0525984 -0.0564134,-0.110524 -0.080752,-0.178024 0.0292598,-0.00443307 0.0579252,-0.0114685 0.0845709,-0.0202126 0.0311575,-0.0102244 0.0652165,-0.0248031 0.0931339,-0.0456614 0.00743701,0.0452598 0.0188976,0.0916181 0.0354134,0.138244 0.00107087,0.00302756 0.00219685,0.00605906 0.0033622,0.00908268 -0.0183504,0.0162953 -0.0400472,0.0300315 -0.053315,0.0391614z"/>
  <path class="fil4" d="M3.45074 3.01722c-0.0211929,0.0113976 -0.0429016,0.0222323 -0.0635709,0.0345709 -0.0197087,-0.0270394 -0.0381614,-0.0549016 -0.0554961,-0.0844055 0.0340354,-0.0188858 0.0656614,-0.0449685 0.0945551,-0.0664528 0.0109724,-0.00815354 0.0254567,-0.018122 0.0391929,-0.0296339 0.0148543,0.0345039 0.0355315,0.0685591 0.0609606,0.10198 -0.0247126,0.0157598 -0.050252,0.0302795 -0.0756417,0.0439409z"/>
  <path class="fil4" d="M3.6096 3.07128c-0.0136575,0.016185 -0.0279528,0.0317638 -0.0425984,0.0470394 -0.0217992,0.0227362 -0.0462559,0.0435591 -0.0693583,0.0655276 -0.0372677,-0.0400394 -0.0708346,-0.0790433 -0.101339,-0.119693 0.0236772,-0.0137795 0.0486417,-0.0256457 0.072437,-0.0398701 0.0221614,-0.0132441 0.0444252,-0.0262559 0.0662205,-0.0399606 0.0226142,0.0284409 0.0486693,0.0563898 0.0774409,0.0837598 -0.0010315,0.00115354 -0.00200787,0.00224803 -0.00280315,0.00319685z"/>
  <path class="fil4" d="M3.65694 3.22012c-0.0228937,0.0174567 -0.0436496,0.0361457 -0.0609606,0.0590906 -0.0266496,-0.0229252 -0.0524134,-0.0469528 -0.0770039,-0.0727087 -0.00394094,-0.00412992 -0.00778346,-0.00820866 -0.0116417,-0.0123071 0.0268583,-0.0259173 0.055937,-0.0500591 0.080937,-0.0766063 0.0120079,-0.0127638 0.0237677,-0.0258425 0.0349094,-0.0394134 0.0341417,0.0315472 0.0718976,0.0622717 0.112244,0.092 -0.0277717,0.0136496 -0.0539055,0.0312008 -0.0784843,0.0499449z"/>
  <path class="fil4" d="M4.22162 3.61837c-0.033815,0.0255315 -0.069122,0.0516142 -0.100398,0.0813071 -0.00885433,-0.00974016 -0.0179134,-0.0193189 -0.027185,-0.0287047 -0.0286142,-0.0290079 -0.0577913,-0.0557992 -0.0872559,-0.0810157 0.000929134,-0.000854331 0.00185039,-0.00170472 0.00277165,-0.00255906 0.0254921,-0.023874 0.0493268,-0.0493976 0.0742874,-0.073815 0.0273976,-0.0268228 0.060937,-0.0593976 0.0985236,-0.077748 0.0576024,0.0345433 0.113843,0.0711417 0.166264,0.109236 -0.0452165,0.0162913 -0.0863622,0.0426299 -0.127008,0.0732992z"/>
  <path class="fil4" d="M4.62259 3.97227c-0.0492598,0.0220118 -0.0999764,0.0407244 -0.148886,0.0635197 -0.0461772,0.0215354 -0.0915157,0.0435906 -0.139071,0.0615787 -0.0168819,-0.0714685 -0.0436417,-0.141213 -0.0789134,-0.207272 0.035748,-0.0310472 0.0735787,-0.0634016 0.115839,-0.0850079 0.0426772,-0.0218189 0.0890787,-0.0336181 0.13374,-0.0504528 0.0174882,-0.0066063 0.0347205,-0.0142087 0.0520866,-0.0213386 0.0319567,0.0386181 0.057311,0.0778386 0.0739921,0.117224 0.012874,0.0303898 0.0265709,0.0631969 0.039878,0.0980433 -0.0160039,0.00832677 -0.032185,0.0163346 -0.0486654,0.0237047z"/>
  <path class="fil4" d="M4.68723 4.17129c-0.0520906,0.0303701 -0.108256,0.0532953 -0.164846,0.0738425 -0.0546614,0.0198543 -0.110504,0.0362402 -0.16724,0.0465827 0.00163386,-0.0601024 -0.00434252,-0.120232 -0.0171063,-0.179299 0.0470236,-0.0169409 0.0914331,-0.0396378 0.136669,-0.0607283 0.0489764,-0.0228268 0.0996575,-0.0416496 0.148976,-0.0636929 0.0178661,-0.00797244 0.0354961,-0.016437 0.0528858,-0.0254094 0.0208268,0.0559094 0.0403071,0.116799 0.0536772,0.181299 -0.0138701,0.00998819 -0.0285787,0.0189764 -0.0430157,0.0274055z"/>
  <path class="fil4" d="M4.70525 4.49872c-0.0393386,0.0175433 -0.0805709,0.0306693 -0.122138,0.0418031 -0.0632953,0.0169567 -0.12648,0.0265551 -0.192193,0.0254685 -0.0333425,-0.000543307 -0.0665315,-0.00295669 -0.099626,-0.00635433 0.0243504,-0.0496457 0.0420039,-0.103083 0.0525512,-0.160071 0.00567323,-0.0306614 0.00917717,-0.0615039 0.010685,-0.0923701 0.0538031,-0.00953937 0.106811,-0.0244291 0.158417,-0.0428701 0.0555591,-0.0198504 0.111925,-0.0412008 0.163634,-0.0698543 0.0195315,-0.010815 0.0384173,-0.0225512 0.0567087,-0.0352362 0.0196299,0.103248 0.0229094,0.215315 -0.0091378,0.330701 -0.00648819,0.00316535 -0.0128819,0.00607874 -0.0189016,0.00878346z"/>
  <path class="fil4" d="M4.1174 5.00651c-0.0461929,-0.0395236 -0.102705,-0.0905039 -0.124453,-0.151012 0.043374,-0.0232402 0.0832717,-0.0491693 0.119409,-0.0777362 0.0153031,0.00540551 0.0308425,0.0101614 0.045189,0.015752 0.0649528,0.0252638 0.135772,0.042811 0.205669,0.0446654 0.0624094,0.00165354 0.124067,-0.00373228 0.183512,-0.0175236 -0.0842756,0.104181 -0.187409,0.180945 -0.332961,0.251827 -0.0348465,-0.0175866 -0.0672402,-0.0410591 -0.0963661,-0.0659724z"/>
  <path class="fil4" d="M3.78756 5.06715c-0.0131496,-0.0296024 -0.0235984,-0.0610787 -0.0304173,-0.0927402 -0.00172047,-0.00799606 -0.00375197,-0.0173307 -0.00527559,-0.027122 0.0148031,-0.00372835 0.0291339,-0.00761811 0.0429213,-0.011685 0.0672441,-0.0198228 0.129142,-0.0444016 0.185382,-0.0734016 0.022315,0.0598937 0.0749882,0.110598 0.121945,0.150776 0.0290866,0.0248858 0.0609646,0.0487323 0.0951732,0.0674134 -0.0553504,0.0262362 -0.116634,0.0517677 -0.185217,0.0776969 -0.0389055,0.0147126 -0.0802874,0.0277992 -0.123504,0.0394528 -0.0412205,-0.0377598 -0.0784016,-0.0795197 -0.101008,-0.13039z"/>
  <path class="fil4" d="M3.51456 5.19161c-0.0118268,-0.0329724 -0.0215197,-0.0674961 -0.0276772,-0.102008 -0.00523622,-0.0293425 -0.00809843,-0.0596811 -0.00683071,-0.0894843 9.05512e-005,-0.00202756 0.000192913,-0.00417323 0.000307087,-0.00638189 0.0937795,-0.0106654 0.181476,-0.0247441 0.25737,-0.0429724 0.000433071,0.00290551 0.00088189,0.0057874 0.0013622,0.00857087 0.00634252,0.0368386 0.0176299,0.0730512 0.0322126,0.107461 0.0223898,0.0528346 0.0592087,0.0960984 0.100654,0.135118 -0.100909,0.026063 -0.211299,0.0444055 -0.32374,0.0567362 -0.0147441,-0.0202874 -0.0253976,-0.0440315 -0.0336575,-0.0670394z"/>
  <path class="fil4" d="M3.2373 5.16296c-0.00538583,-0.0498898 -0.00262205,-0.0996772 0.000874016,-0.149488 0.0774764,-0.00419291 0.15411,-0.010122 0.227264,-0.0180906 -0.0017126,0.0309567 0.000948819,0.0623543 0.00614173,0.0928031 0.00930709,0.0545709 0.0248031,0.122567 0.0590039,0.172346 -0.090752,0.00943701 -0.182583,0.0150118 -0.271626,0.0176339 -0.010063,-0.0379528 -0.0175039,-0.0766496 -0.0216575,-0.115205z"/>
  <path class="fil4" d="M2.94297 5.02178c0.0912244,-0.000393701 0.186142,-0.00269291 0.280094,-0.00751181 -0.00393307,0.052752 -0.00709843,0.105748 0.000543307,0.158157 0.00522441,0.035752 0.0119685,0.0712047 0.0207717,0.10613 -0.0985472,0.00254331 -0.193386,0.00149213 -0.27922,-0.00197638 -0.00282283,-0.0851969 -0.0111024,-0.170256 -0.022189,-0.254799z"/>
  <path class="fil4" d="M2.12808 5.1216c-0.00329921,-0.0319685 0.000251969,-0.064748 0.0125,-0.0984055 0.0122598,-0.0337047 0.0313268,-0.0690354 0.0582087,-0.0945433 0.0594843,0.023248 0.125669,0.0436575 0.197508,0.0588307 -0.0105157,0.0309843 -0.0149094,0.0670591 -0.0172402,0.0843346 -0.00571654,0.0423031 -0.00348031,0.0868268 0.00660236,0.129366 -0.0897559,-0.0208898 -0.178319,-0.0470354 -0.257579,-0.0795827z"/>
  <path class="fil4" d="M1.90857 4.98711c0.000484252,-0.0192874 0.00208661,-0.0385748 0.00498425,-0.0575709 0.00350787,-0.0228701 0.00895276,-0.0453504 0.0185787,-0.0664764 0.00631496,-0.0138543 0.0207008,-0.0462795 0.0391496,-0.0571063 0.053,0.039622 0.12502,0.081122 0.212343,0.116646 -0.0264567,0.0269488 -0.045685,0.0624843 -0.0574213,0.0966457 -0.0105039,0.0305669 -0.0171181,0.062815 -0.0152835,0.0951457 -0.0813346,-0.0349528 -0.151854,-0.0769567 -0.20235,-0.127283z"/>
  <path class="fil4" d="M1.84574 4.64797c-0.0063622,0.00517323 -0.0122598,0.0108386 -0.0175433,0.0164173 -0.0218701,0.0230551 -0.037626,0.0490787 -0.0485276,0.0789134 -0.0206772,-0.0960157 0.00172047,-0.174055 0.0439291,-0.250724 -0.00400394,0.0436772 0.0015748,0.100457 0.0221417,0.155394z"/>
  <path class="fil4" d="M1.78746 4.7666c0.0091063,-0.0290394 0.0211142,-0.0575512 0.0412835,-0.0807126 0.00618898,-0.00711811 0.0139409,-0.0159094 0.0226811,-0.0237205 0.0136535,0.0320787 0.0326614,0.0630945 0.0581575,0.0899764 0.0135118,0.0142638 0.0303071,0.0294094 0.0501024,0.0449252 -0.0131102,0.00975197 -0.023563,0.0257047 -0.0308228,0.0391535 -0.0145,0.0268819 -0.0244606,0.0553937 -0.0290787,0.0855906 -0.00252362,0.0165276 -0.0044252,0.033315 -0.00550394,0.0501614 -0.0108071,-0.0120984 -0.0205118,-0.0246417 -0.0289409,-0.0376772 -0.0392992,-0.0608504 -0.0646575,-0.114894 -0.0789134,-0.164138 0.000350394,-0.00118898 0.000673228,-0.00237795 0.00103543,-0.00355906z"/>
  <path class="fil4" d="M2.40159 5.20485c-0.0105984,-0.0403819 -0.0136929,-0.0828386 -0.00895669,-0.122697 0.0033189,-0.0278346 0.00819685,-0.0560079 0.0169213,-0.082685 0.000807087,-0.00248031 0.00175591,-0.00545669 0.0028622,-0.00867323 0.0575039,0.0113819 0.118461,0.0193976 0.182346,0.0228661 0.0247598,0.00135433 0.0507638,0.00256299 0.0777874,0.00360236 -0.000232283,0.000775591 -0.000472441,0.00156299 -0.000704724,0.0023189 -0.00915354,0.0304173 -0.0141142,0.0620157 -0.0175276,0.0935551 -0.00346457,0.032185 -0.00616929,0.0650118 -0.00601575,0.0973898 5.11811e-005,0.0128543 0.000452756,0.0257008 0.00107874,0.0385354 -0.0787677,-0.0107756 -0.163591,-0.0252244 -0.247791,-0.0442126z"/>
  <path class="fil4" d="M2.66353 5.23241c-0.000858268,-0.0329449 0.000724409,-0.0659724 0.00366929,-0.0988031 0.00281496,-0.031378 0.00661417,-0.0629961 0.014437,-0.0935669 0.00171654,-0.00671654 0.00360236,-0.0144173 0.00601181,-0.0222047 0.0741181,0.00268504 0.155524,0.00417717 0.240421,0.00399606 0.0111102,0.0842992 0.019378,0.16915 0.0221929,0.254134 -0.0719291,-0.00317717 -0.137154,-0.00801575 -0.19239,-0.0138031 -0.029752,-0.0031063 -0.0611299,-0.00680709 -0.0936063,-0.0111024 -0.000322835,-0.00620866 -0.000574803,-0.0124291 -0.00073622,-0.0186496z"/>
  <path class="fil4" d="M4.56161 4.80174c-0.0593307,0.015748 -0.121157,0.0225669 -0.184087,0.0218189 -0.0679961,-0.000826772 -0.134087,-0.0156496 -0.198098,-0.0379488 -0.0164803,-0.00574803 -0.0359094,-0.0109606 -0.0550276,-0.0175472 0.0672323,-0.0555315 0.120878,-0.120449 0.159472,-0.194008 0.0380709,0.00416142 0.0762598,0.00693307 0.114535,0.0068937 0.0670669,-9.84252e-005 0.131157,-0.010122 0.195677,-0.0279685 0.0423071,-0.0117165 0.0847559,-0.0251772 0.124484,-0.0441102 -0.00977953,0.0314646 -0.0221929,0.0631535 -0.0377441,0.0949567 -0.0372008,0.076126 -0.0757717,0.141035 -0.119213,0.197913z"/>
  <path class="fil4" d="M4.50134 3.74026c-0.0437992,0.0160315 -0.0898622,0.0277087 -0.131559,0.0490236 -0.0439331,0.0224528 -0.0841457,0.052811 -0.122146,0.0860551 -0.0325748,-0.0583976 -0.0717362,-0.113776 -0.11661,-0.164693 0.0319803,-0.030689 0.0685039,-0.0573898 0.103209,-0.0832205 0.0412244,-0.0307126 0.0827953,-0.0567283 0.129039,-0.0716102 0.0713504,0.0529764 0.134941,0.108752 0.184346,0.165921 -0.015315,0.00630315 -0.030626,0.0127874 -0.0462795,0.0185236z"/>
  <path class="fil4" d="M4.07823 3.49824c-0.0277717,0.0271732 -0.0540787,0.0559291 -0.0828858,0.0820039 -0.0399843,-0.0335787 -0.0804331,-0.0643701 -0.12074,-0.0937717 0.0166024,-0.0213543 0.0352362,-0.0411063 0.0576693,-0.0579882 0.033815,-0.0254252 0.0673504,-0.0526102 0.103394,-0.0751654 0.0438937,0.0232205 0.0882047,0.0478543 0.13187,0.0736772 -0.0337283,0.0184921 -0.0640512,0.0465197 -0.0893071,0.0712441z"/>
  <path class="fil4" d="M3.91834 3.42046c-0.0213425,0.0172717 -0.0392795,0.036752 -0.0553976,0.0575236 -0.0437323,-0.0316417 -0.0872205,-0.0618504 -0.129661,-0.0923976 0.017874,-0.022689 0.0392992,-0.0432441 0.0570236,-0.0619291 0.0243622,-0.025689 0.0532165,-0.0447362 0.0838858,-0.0608622 0.0472087,0.0287992 0.0961181,0.0562717 0.145614,0.082185 -0.0358346,0.0227087 -0.0694567,0.0495591 -0.101465,0.0754803z"/>
  <path class="fil4" d="M3.77319 3.31974c-0.016748,0.0169882 -0.0356535,0.0361378 -0.0519055,0.0571693 -0.0387441,-0.0281102 -0.0765591,-0.0566654 -0.112799,-0.0870945 0.0158543,-0.0207992 0.0336496,-0.0400669 0.0559724,-0.0568346 0.0265197,-0.0199055 0.0545984,-0.0389173 0.0846811,-0.0528701 0.0355276,0.0256102 0.0729252,0.050437 0.111555,0.0743819 -0.0313858,0.0175669 -0.0607913,0.0381575 -0.0875039,0.065248z"/>
  <path class="fil14" d="M3.61114 1.93563c0,0 0.145992,-0.210303 0.441461,-0.112972 0.295469,0.0973346 0.302421,0.118189 0.302421,0.118189 -0.368646,-0.138839 -0.544138,-0.0858543 -0.743882,-0.00521654z"/>
  <path class="fil15" d="M4.06513 2.19735c0.111287,0.0753071 0.408634,0.313902 0.521268,0.331472 0.148543,0.0231693 0.23772,-0.0575748 0.266823,-0.100378 0.0291024,-0.042815 0.0187795,-0.107803 0.0040748,-0.132059 -0.0147126,-0.0242598 -0.0306575,-0.0393346 -0.0260472,-0.0415906 0.00461811,-0.00225591 0.0656299,0.0465394 0.0747913,0.112098 0.00916929,0.0655591 -0.0387992,0.119488 -0.0719567,0.145228 -0.0331614,0.0257323 -0.0466535,0.0351811 -0.0466535,0.0351811 0,0 0.060937,-0.00595276 0.122843,-0.0352559 0.0619173,-0.0293071 0.134594,-0.106752 0.143433,-0.110114 0.00883858,-0.00337008 -0.0346693,0.0655315 -0.104114,0.12426 -0.0694567,0.0587126 -0.216996,0.115571 -0.32828,0.100394 -0.11128,-0.0151772 -0.191567,-0.0702835 -0.255366,-0.128669 -0.22076,-0.180965 -0.260602,-0.205646 -0.41911,-0.312476l0.118295 0.0119094z"/>
 </g>
</svg>
